<?xml version="1.0" encoding="utf-8" ?><svg xmlns="http://www.w3.org/2000/svg" xmlns:xlink="http://www.w3.org/1999/xlink" width="180" height="180" viewBox="0 0 180 180"><path fill="#1F1F1F" transform="scale(0.175781 0.175781)" d="M0 0L140.095 0L881.884 0L1024 0L1024 143.619L1024 878.968L1024 1024L883.346 1024L141.275 1024L0 1024L0 877.266L0 144.114L0 0Z"/><path fill="#FFFEFF" transform="scale(0.175781 0.175781)" d="M0 877.266C1.49346 887.265 1.99053 895.052 4.35966 905.076C12.7803 940.564 33.5333 971.906 62.9171 993.514C80.2064 1006.44 99.9911 1015.63 121.018 1020.51C127.823 1022.03 135.14 1022.64 141.275 1024L0 1024L0 877.266Z"/><path fill="#FFFEFF" transform="scale(0.175781 0.175781)" d="M0 0L140.095 0C128.863 2.20828 121.49 2.98207 110.167 6.45817C75.9956 17.122 46.4358 39.0296 26.2917 68.62C12.6183 88.8884 3.77365 112.341 1.09955 136.448C0.846208 138.732 0.536198 141.921 0 144.114L0 0Z"/><path fill="#FFFEFF" transform="scale(0.175781 0.175781)" d="M1024 878.968L1024 1024L883.346 1024C889.2 1022.45 897.515 1021.9 904.082 1020.36C924.427 1015.59 943.936 1006.12 960.76 993.846C989.743 972.74 1010.43 942.157 1019.23 907.399C1021.66 897.608 1022.46 888.863 1024 878.968Z"/><path fill="#FFFEFF" transform="scale(0.175781 0.175781)" d="M881.884 0L1024 0L1024 143.619C1022.7 137.719 1022.27 129.717 1020.88 123.105C1016.93 104.228 1008.7 84.4519 997.883 68.5294C977.327 38.1006 946.756 15.8382 911.487 5.61303C899.679 2.31568 893.07 2.11956 881.884 0Z"/><path fill="#98FB9E" transform="scale(0.175781 0.175781)" d="M578.407 32.2143C598.636 31.4652 618.546 37.4138 635.049 49.1369C655.023 63.4837 677.387 91.4638 681.48 116.359C680.662 118.234 679.662 120.16 678.752 122.005C679.053 125.616 679.325 129.23 679.568 132.846C695.347 118.187 719.895 114.014 738.276 126.166C753.923 136.51 758.862 153.575 762.725 171.026C763.588 174.923 766.108 188.061 764.247 190.864C762.798 191.75 761.782 191.498 760.03 191.445L759.279 191.418C756.265 195.158 758.188 226.586 744.447 216.915L750.543 231.014C770.897 234.624 793.927 255.682 808.075 270.445C813.551 267.155 819.329 263.21 825.448 261.575C835.098 271.762 848.43 292.058 856.081 304.32C859.22 301.808 863.473 298.579 867.468 298.149C869.063 298.483 869.838 299.606 870.826 300.804C877.65 309.078 928.931 393.476 927.769 399.032C927.039 402.517 922.594 404.681 919.882 406.494C924.859 414.606 934.685 429.943 937.114 438.383C933.801 442.877 922.218 451.628 917.415 455.266C958.457 567.266 994.592 692.333 946.028 808.275C941.525 819.025 936.247 832.059 928.583 840.811C909.457 840.705 896.57 838.644 878.605 831.565C851.381 851.991 823.972 872.171 796.382 892.1C781.031 903.29 765.403 915.684 749.849 926.323C717.386 948.339 682.371 966.335 645.571 979.913C633.757 984.254 618.354 989.786 605.995 991.26C600.923 986.965 596.565 978.822 593.325 972.957C589.235 965.553 584.834 960.339 593.939 955.276C593.031 944.907 593.138 930.021 599.055 921.135C611.285 902.765 631.521 890.243 645.239 872.385C662.457 849.971 675.233 825.451 691.029 802.434C687.132 799.798 682.619 797.128 678.589 794.626C670.092 802.85 650.153 820.767 641.045 827.686L578.583 771.946C565.465 760.346 552.424 748.66 539.459 736.889C511.888 711.884 491.151 692.828 473.619 659.943C449.715 701.965 425.039 743.543 399.606 784.657C386.415 806.291 372.097 831.766 357.293 852.222L352.891 851.12C342.012 848.38 331.227 845.278 320.555 841.819C319.883 844.798 319.172 847.768 318.423 850.728C327.867 868.581 333.619 888.152 335.337 908.276C336.568 921.661 335.748 934.741 335.486 948.25C335.261 953.849 337.93 969.071 333.32 973.275C325.582 980.331 304.527 980.803 294.757 981.204C276.259 981.965 257.871 981.44 239.629 980.907C215.984 980.234 192.344 979.401 168.711 978.407L126.064 977.134C101.659 976.38 72.7816 975.082 51.3477 960.739C48.6093 958.907 48.3926 945.318 48.5156 941.782C48.7251 935.763 51.4363 932.589 55.728 928.784C61.1036 894.123 87.4426 894.064 115.085 887.517C120.128 886.289 125.075 884.696 129.888 882.752C156.034 872.265 179.341 857.466 203.103 842.637C211.743 837.246 220.216 831.086 229.244 826.447C232.964 824.537 235.57 824.482 239.595 824.309C243.538 815.721 247.3 808.05 252.09 799.89C240.849 788.989 227.536 776.438 217.845 764.152C224.98 751.71 234.14 739.578 241.067 727.301C237.784 728.144 234.83 728.484 231.479 728.937C231.569 732.17 231.88 738.678 229.455 740.744C221.798 747.267 212.521 733.241 207.202 729.504C201.363 725.403 196.283 723.787 190.976 719.084C184.065 712.961 183.891 698.2 182.314 689.457C184.441 650.446 226.296 590.078 248.635 564.992C247.778 561.959 246.922 556.215 247.223 553.107C247.395 551.325 248.377 549.72 249.54 548.387C255.285 541.798 261.551 535.649 267.415 529.117C281.868 513.017 295.994 496.214 311.576 481.208C318.058 474.966 326.818 468.22 333.897 462.648C328.086 446.207 321.207 429.54 314.772 413.313L295.568 363.943L331.785 364.02C340.013 386.77 347.999 409.607 355.742 432.526C362.629 411.183 371.621 384.978 379.816 364.073C391.497 364.05 403.573 363.869 415.22 364.247C406.96 386.636 398.075 407.394 389.27 429.48C402.776 420.197 420.683 409.924 434.98 401.113L435.087 364.049C446.011 363.993 457.607 363.919 468.485 364.26L468.554 378.372C474.969 373.692 494.451 360.692 496.971 353.881C502.46 339.042 508.677 332.628 520.156 321.936C523.738 318.599 529.536 311.515 532.915 307.634C525.911 303.656 527.218 301.491 521.886 296.674C519.372 294.403 514.632 294.54 511.838 290.013C508.735 284.986 510.913 276.996 506.434 273.525C501.363 269.597 488.845 269.837 484.898 263.714C479.414 255.206 491.201 247.537 492.375 238.232C494.198 223.791 482.57 220.395 475.547 210.633L475.155 210.076C462.165 213.806 397.787 230.469 389.589 223.55C389.055 222.517 388.792 221.796 389.027 220.616C391.633 207.523 444.932 170.935 457.616 163.128C457.44 160.713 457.281 158.296 457.142 155.878C452.657 76.3659 503.411 35.8528 578.407 32.2143Z"/><path fill="#1F1F1F" transform="scale(0.175781 0.175781)" d="M631.955 263.685C656.762 244.754 681.6 229.902 711.319 219.491C719.649 216.573 725.31 218.99 735.94 214.262C740.867 221.572 742.473 227.08 745.767 235.282C717.518 238.975 681.254 244.403 655.05 255.903C665.29 254.3 676.575 250.698 687.34 248.791L727.22 241.892C734.588 240.633 744.84 239.232 751.794 237.178C769.995 244.232 791.942 260.601 804.358 275.669C797.577 273.09 772.46 262.62 767.366 264.048C765.334 266.486 764.921 270.808 764.74 273.93C763.538 294.674 761.124 315.815 760.836 336.578C765.123 338.436 790.423 344.37 796.236 345.638C813.314 349.364 832.922 355.48 849.706 358.814C838.3 379.565 828.043 401.233 817.119 422.264C813.701 428.843 809.897 436.14 806.977 442.95C832.709 453.392 860.434 461.964 886.716 470.954L858.119 525.634C853.539 534.402 845.966 548.06 842.298 556.911C854.147 561.848 867.809 566.528 879.964 571.103C892.711 576.031 905.416 581.067 918.078 586.211C907.167 605.602 896.512 625.136 886.117 644.808C881.692 653.252 875.834 663.979 871.94 672.501C895.462 682.443 919.627 691.396 943.279 701.444L909.874 754.655C902.899 765.821 894.623 778.449 888.513 789.975C904.626 796.413 923.613 802.158 939.119 809.115C934.576 818.038 930.697 825.79 925.453 834.374C915.599 833.198 904.391 833.102 894.985 830.217C833.278 811.286 793.422 751.544 771.273 694.131C762.18 670.561 754.586 647.751 744.247 624.571C760.725 645.366 778.206 667.798 784.626 694.067C783.463 695.28 782.286 696.066 781.963 697.441C783.914 698.714 786.82 697.65 788.288 696.028C788.72 693.865 787.017 691.073 786.346 688.813C778.486 662.353 762.757 641.482 745.056 620.79C749.917 624.085 758.755 631.954 763.477 635.956C781.279 650.841 798.333 666.597 814.577 683.168C823.021 691.653 830.911 700.774 840.101 708.392C832.013 691.359 769.248 635.005 751.862 621.278C749.234 619.203 734.492 609.009 730.738 606.593C719.772 599.533 699.947 585.059 688.638 580.378C692.005 583.967 705.442 595.597 706.65 598.526C712.849 613.554 717.917 629.683 723.651 644.974C725.484 649.841 728.727 664.854 732.715 667.084C734.691 662.264 715.755 610.795 712.456 602.899C712.214 602.318 711.961 601.742 711.697 601.171C716.899 604.753 732.6 614.953 735.141 619.475C745.927 638.672 753.489 665.761 761.024 686.079C768.045 705.189 776.311 723.819 785.767 741.85C766.931 751.694 750.157 757.97 728.885 750.872C706.808 743.506 680.474 723.558 661.665 709.535C645.623 697.681 629.768 685.575 614.107 673.222L536.294 613.265L513.696 595.981C508.266 591.823 500.933 585.681 494.81 583.005C500.297 590.404 522.885 607.321 530.815 613.409L575.402 647.517C603.095 669.144 630.994 690.505 659.095 711.597C673.484 722.221 687.754 732.918 703.067 742.189C734.64 761.304 755.897 761.8 787.577 744.431C802.677 768.318 823.124 796.994 846.865 813.072C810.703 829.507 765.159 826.911 728.706 812.866C700.402 801.961 669.133 782.224 643.901 765.351C604.164 738.763 565.696 710.325 528.625 680.13C512.373 667.106 496.166 654.649 480.338 641.082C479.197 633.124 475.237 599.56 472.724 595.19L472.388 595.071C469.919 599.834 474.217 636.04 475.604 642.764C464.045 664.495 449.821 687.778 437.28 709.207C415.974 745.737 394.179 781.979 371.899 817.924C346.822 810.771 311.95 792.833 292.387 775.674C308.382 747.017 325.242 718.851 342.945 691.215C353.421 674.753 364.036 658.379 374.788 642.095C382.715 630.126 412.7 588.479 414.93 578.964C408.493 584.662 394.421 607.16 388.759 615.519C365.43 649.553 342.997 684.193 321.484 719.403C314.376 731.074 307.402 742.825 300.563 754.655C297.765 759.55 292.376 769.907 289.531 774.091C276.4 763.563 256.15 745.548 245.571 732.429C246.115 730.148 256.724 713.389 258.662 710.147C263.364 702.19 267.976 694.181 272.498 686.12C285.841 662.274 298.824 638.229 311.443 613.993C317.416 602.487 324.234 589.739 329.694 578.051C343.835 580.333 356.35 579.21 369.532 573.186L364.939 555.767C350.042 561.643 333.069 564.999 325.135 546.541C323.172 541.973 322.996 536.046 322.923 531.197C322.504 503.26 337.679 492.2 363.154 504.099C365.387 499.889 368.109 491.737 369.673 487.093C345.896 474.433 317.291 480.305 304.227 504.815C296.99 518.393 296.055 534.554 300.384 549.236C304.275 562.024 312.332 569.906 323.895 576.119C318.242 586.605 312.429 597.833 306.562 608.144C301.375 610.524 294.643 612.316 289.225 609.898C270.595 601.583 254.731 574.004 253.344 554.57L253.291 553.9L253.265 553.498C259.717 546.138 267.167 539.454 273.583 532.179C291.336 512.048 307.771 491.347 329.169 474.863C333.182 471.771 337.688 467.733 341.91 464.952C351.733 464.521 362.964 464.824 372.891 464.873C375.975 457.975 381.779 444.138 385.381 438.13C403.316 428.348 417.788 418.638 434.949 408.646C435.023 427.225 435 445.804 434.881 464.382L468.539 464.423L468.513 385.79C477.136 379.605 494.251 368.448 500.286 360.316C503.253 356.317 506.015 347.145 510.556 341.531C516.634 334.017 527.099 324.834 532.464 318.264C569.627 272.757 588.591 273.941 644.054 267.723C668.891 264.939 699.047 259.983 724.855 262.992C729.654 263.552 735.289 265.679 739.818 267.402C733.606 261.908 727.003 259.324 718.81 258.402C690.148 255.176 660.311 260.486 631.955 263.685Z"/><path fill="#98FB9E" transform="scale(0.175781 0.175781)" d="M497.603 364.01C515.612 363.477 534.344 364.326 552.352 363.96C566.588 363.671 591.65 362.604 599.093 377.534C606.723 392.835 602.053 404.047 587.145 411.953C604.675 418.561 610.333 429.89 603.622 447.681C592.473 467.361 562.751 464.285 543.083 464.306L497.566 464.323C497.866 430.886 497.878 397.447 497.603 364.01Z"/><path fill="#1F1F1F" transform="scale(0.175781 0.175781)" d="M540.527 424.237C548.271 424.061 580.262 421.306 570.044 437.616C568.568 439.973 563.704 440.141 561.122 440.416C550.777 440.695 539.975 440.555 529.596 440.565C529.658 435.195 529.635 429.824 529.526 424.455L540.527 424.237Z"/><path fill="#1F1F1F" transform="scale(0.175781 0.175781)" d="M545.467 386.734C551.606 386.679 562.744 386.494 566.918 390.723C576.492 400.425 561.784 402.537 555.801 402.83C547.313 402.913 538.824 402.867 530.336 402.694L530.38 387.194L545.467 386.734Z"/><path fill="#98FB9E" transform="scale(0.175781 0.175781)" d="M635.978 363.964C665.03 363.635 695.163 363.915 724.245 364.058C723.959 371.744 724.124 379.676 724.187 387.389L668.401 387.338C668.295 391.565 668.26 395.793 668.293 400.022L719.039 400.036L718.996 423.804L678.625 423.773L668.012 423.778L668.014 438.093C687.188 437.86 706.83 438.045 726.042 437.996L726.084 463.907C696.3 464.348 665.578 463.962 635.749 463.93L635.978 363.964Z"/><path fill="#98FB9E" transform="scale(0.175781 0.175781)" d="M385.815 480.383C393.721 480.306 401.628 480.342 409.533 480.491L409.458 519.385C419.753 519.228 430.05 519.232 440.344 519.398L440.46 480.393L464.427 480.475C464.889 501.428 464.474 523.947 464.474 545.009L464.479 565.502C464.487 569.015 464.75 574.211 464.317 577.492L463.519 578.021L440.255 578.052C439.696 566.15 440.311 550.411 440.216 537.998C430.102 537.86 419.621 538.009 409.479 538.03C409.144 551.042 409.28 564.848 409.135 577.941C401.379 578.088 393.251 577.946 385.465 577.923C385.095 545.522 386.258 512.698 385.815 480.383Z"/><path fill="#98FB9E" transform="scale(0.175781 0.175781)" d="M650.242 482.433L673.938 482.507C674.06 496.752 673.767 510.758 673.675 524.994C676.165 521.371 679.758 514.732 682.093 510.722L698.43 482.449L726.218 482.572C717.703 496.941 706.071 513.685 696.87 528.107L716.122 559.743C719.697 565.734 723.15 571.796 726.479 577.927L700.756 578.015L674.032 534.959L674.012 578.01L650.097 578.081C649.834 568.458 650.133 557.623 650.128 547.891L650.242 482.433Z"/><path fill="#98FB9E" transform="scale(0.175781 0.175781)" d="M484.58 480.464L547.987 480.616C548.1 486.995 548.006 493.607 547.995 500.005C535.387 499.964 521.575 500.149 509.072 499.622L508.998 518.86C519.709 518.497 532.321 518.782 543.104 518.9C543.236 525.085 543.087 531.74 543.054 537.959C531.621 537.879 520.188 537.89 508.756 537.991L508.542 542.796L508.543 558.523L548.051 558.503C548.166 564.995 548.192 571.489 548.129 577.982L484.584 577.847C484.103 545.608 484.813 512.817 484.58 480.464Z"/><path fill="#98FB9E" transform="scale(0.175781 0.175781)" d="M549.78 473.998C554.386 475.571 571.497 487.234 576.193 490.502C590.915 476.974 617.637 474.558 634.224 485.519C631.414 490.857 628.455 497.457 625.809 502.976C614.331 498.333 606.203 496.815 594.706 502.79C608.97 511.524 630.018 525.679 643.788 536.25C644.616 536.885 644.71 539.949 643.058 540.954C638.369 539.935 600.293 513.25 593.753 508.802L590.431 506.732C586.651 513.754 584.788 520.006 584.48 527.988C583.237 560.232 599.548 563.321 626.002 555.727C628.73 560.476 632.071 568.407 634.427 573.632C609.446 585.201 567.917 581.322 562.826 548.47C559.37 526.168 560.269 513.529 572.711 494.67C566.112 490.139 555.545 483.745 550.044 478.031C549.026 476.973 549.461 475.311 549.78 473.998Z"/><path fill="#98FB9E" transform="scale(0.175781 0.175781)" d="M607.616 278.695C636.051 278.073 649.787 301.149 662.49 323.309C664.665 327.103 672.838 344.384 671.864 348.396L671.017 347.288C658.528 323.156 644.51 288.991 615.334 281.588C612.016 280.746 608.488 280.86 605.324 279.704L605.468 279.229L607.616 278.695Z"/><path fill="#1F1F1F" transform="scale(0.175781 0.175781)" d="M464.032 160.09C462.983 147.797 464.279 129.788 466.686 117.603C471.573 92.8641 485.168 73.2862 506.29 59.3489C531.4 42.7801 570.761 34.9108 600.599 40.4089C623.796 44.6833 645.794 63.2543 658.582 82.6118C657.731 82.6766 656.879 82.7478 656.029 82.8255C653.634 83.0445 648.835 82.9885 648.905 86.1507C649.057 93.024 651.113 101.443 652.865 108.008C656.333 107.958 663.543 107.136 665.688 109.81C666.013 111.889 666.547 112.837 665.743 114.442C664.012 114.834 663.485 114.847 661.771 114.921C657.792 114.492 645.324 115.269 640.933 115.574C608.288 117.844 578.374 125.902 547.132 134.875C519.202 142.896 491.858 151.723 464.032 160.09Z"/><path fill="#1F1F1F" transform="scale(0.175781 0.175781)" d="M582.872 157.067C599.599 158.252 601.849 180.683 600.176 193.513C598.302 185.973 597.702 179.139 590.761 174.107C589.359 173.091 585.361 171.236 584.357 173.449C589.165 176.045 592.484 177.342 594.549 182.729C599.223 194.926 596.16 209.154 582.958 213.931C581.338 212.363 580.214 210.947 578.124 210.23L577.696 210.703C578.205 212.954 579.789 214.655 581.214 216.557C582.389 236.228 574.928 247.037 567.79 264.423C580.458 247.827 585.139 238.503 584.365 218.153C592.045 217.14 593.463 216.254 598.131 210.447C606.194 218.151 614.059 222.905 624.537 226.535C613.007 234.644 584.083 260.27 578.177 272.796C561.255 277.054 549.345 290.402 536.961 302.2C535.032 301.183 531.774 299.607 530.695 297.667C529.181 294.942 539.907 277.526 541.101 272.835C541.572 270.983 541.959 269.213 540.949 267.49L539.831 267.253C537.453 268.11 537.031 268.661 535.035 270.336C532.307 273.107 529.76 275.619 526.747 278.088C525.357 279.227 520.314 282.573 520.018 283.821C524.688 287.246 535.627 274.349 538.693 271.083C537.065 276.493 534.126 283.624 530.697 288.138C528.299 291.295 525.339 290.996 521.971 290.006C513.017 287.375 517.235 276.797 511.958 270.127C505.809 262.355 498.827 266.81 491.927 261.334C491.103 260.657 489.369 258.159 489.59 257.739C493.989 249.375 499.348 244.569 498.977 234.018C498.531 221.311 489.149 216.301 480.934 208.664C492.77 191.654 491.034 189.868 511.058 179.474C495.909 179.017 485.567 181.966 474.34 191.881L471.959 179.914C480.619 175.463 490.891 170.833 499.758 166.514C514.902 175.279 529.669 181.872 546.057 187.965C548.194 188.759 549.729 192.6 552.218 193.227C556.791 194.378 557.586 194.222 559.721 190.072C559.721 190.072 562.764 188.682 563.112 188.524C565.793 195.537 567.861 199.86 572.52 205.678C571.567 201.192 569.613 195.585 568.235 191.096C564.295 178.257 568.068 160.557 582.872 157.067Z"/><path fill="#98FB9E" transform="scale(0.175781 0.175781)" d="M515.134 197.559C516.219 197.567 515.717 197.408 516.628 198.074C516.578 204.351 502.711 217.522 497.417 220.763C495.172 217.46 495.079 215.485 494.589 211.624C498.158 202.059 506.106 199.872 515.134 197.559Z"/><path fill="#98FB9E" transform="scale(0.175781 0.175781)" d="M503.902 240.774C507.196 242.95 509.728 249.015 510.935 252.686C506.58 250.051 504.909 245.504 503.902 240.774Z"/><path fill="#29392C" transform="scale(0.175781 0.175781)" d="M582.803 174.444C584.059 175.876 581.343 182.404 581.788 186.276L581.108 186.321L580.512 185.75C580.267 183.391 582.097 177.01 582.803 174.444Z"/><path fill="#1F1F1F" transform="scale(0.175781 0.175781)" d="M893.226 473.331C898.196 476.138 915.329 482.233 921.411 484.472C928.816 505.031 935.573 525.817 941.671 546.801C933.597 558.066 928.259 568.808 921.184 580.384L905.622 574.274C888.265 567.653 867.891 560.589 851.125 553.321C856.957 540.963 863.854 528.321 870.278 516.203C877.826 501.858 885.475 487.567 893.226 473.331Z"/><path fill="#1F1F1F" transform="scale(0.175781 0.175781)" d="M924.272 588.675C933.325 592.529 944.444 596.394 953.775 599.931C958.125 620.948 961.806 649.585 963.091 670.755C957.64 679.823 952.833 686.094 947.113 696.246L928.853 688.568C914.072 682.418 895.306 675.733 881.226 669.151C885.936 658.367 893.614 644.537 899.303 634.102L924.272 588.675Z"/><path fill="#1F1F1F" transform="scale(0.175781 0.175781)" d="M312.236 854.353C316.689 856.094 322.506 876.686 323.885 881.764C316.086 885.495 301.71 891.566 293.56 894.417C277.708 899.961 261.151 907.008 245.198 899.542C251.7 890.263 260.309 880.411 244.273 875.735C234.999 878.042 216.41 887.571 207.459 892.034C199.868 895.819 164.215 911.147 160.753 916.107C159.862 917.384 159.538 918.972 159.858 920.496C162.988 935.277 196.438 923.297 206.022 920.956C210.249 926.501 214.06 932.422 217.926 938.231L220.294 941.557C192.939 941.505 164.307 942.447 136.977 943.28C136.847 926.114 136.371 902.406 151.942 891.44C154.049 893.936 156.42 897.209 158.439 899.851C180.468 889.474 202.95 879.845 225.044 869.587C230.554 867.03 236.438 864.139 242.177 862.279C256.506 866.398 261.946 877.345 273.883 878.558C287.55 879.947 302.837 862.595 312.236 854.353Z"/><path fill="#1F1F1F" transform="scale(0.175781 0.175781)" d="M858.329 355.792C865.418 361.328 900.907 429.757 904.526 439.265C900.238 444.989 893.992 458.124 890.229 465.079C883.445 462.734 876.641 460.447 869.818 458.218C853.45 451.985 832.479 445.368 815.755 439.708C819.273 431.354 825.304 420.986 829.377 412.668C838.721 393.586 848.886 374.821 858.329 355.792Z"/><path fill="#1F1F1F" transform="scale(0.175781 0.175781)" d="M250.429 571.908C251.335 572.818 257.101 584.91 258.735 587.645C261.422 592.143 264.058 596.126 267.065 600.54C263.021 609.955 260.67 619.958 255.818 628.773C251.77 636.507 245.135 642.047 239.619 648.457C232.296 656.966 222.059 666.512 215.739 675.599C215.465 680.167 214.664 696.453 216.687 700.415C217.269 701.555 223.209 701.515 224.725 701.469C230.292 701.3 233.64 706.039 237.466 707.524C238.849 708.06 247.888 708.787 250.619 709.192C248.757 712.595 247.081 715.514 245.032 718.804C238.066 706.915 229.943 712.158 218.294 710.178C211.913 709.094 207.567 707.15 201.65 704.733C202.41 700.734 203.104 696.723 203.731 692.7C204.646 686.812 207.603 666.115 204.549 661.941L203.605 662.002C202.323 663.326 202.398 664.165 202.115 666.002C202.037 666.406 201.964 666.811 201.896 667.217C200.819 674.138 200.384 684.49 199.228 690.892C195.319 712.538 205.338 713.703 223.739 715.221C229.209 715.672 236.261 713.049 240.397 718.458C240.952 724.341 223.96 723.638 219.635 723.892C208.679 724.535 199.478 718.584 191.995 711.174C191.427 705.7 189.107 697.956 188.857 693.447C187.999 677.992 198.406 652.454 205.377 639.569C218.449 615.405 233.778 593.183 250.429 571.908Z"/><path fill="#1F1F1F" transform="scale(0.175781 0.175781)" d="M480.598 650.316C482.529 651.145 494.797 661.712 497.36 663.726L565.097 717.047C591.05 736.973 617.727 755.938 645.073 773.903L636.823 777.536C624.215 782.775 613.397 783.087 600.116 783.005C597.642 781.18 595.177 779.049 592.931 776.902C560.867 746.245 524.963 718.715 496.379 684.704C488.852 675.748 482.787 665.324 476.912 655.379C478.005 653.739 479.414 651.925 480.598 650.316Z"/><path fill="#1F1F1F" transform="scale(0.175781 0.175781)" d="M242.354 879.515C244.581 879.358 249.511 879.492 249.583 882.536C249.605 892.19 239.003 900.307 234.123 908.314C226.359 921.051 236.834 922.15 247.12 922.012C275.2 921.634 302.076 912.366 328.185 902.853C329.957 916.334 329.726 926.949 328.975 940.399C313.346 940.786 298.816 941.91 282.747 942.038C263.257 942.032 243.769 941.858 224.283 941.516C219.532 934.181 213.907 925.436 208.667 918.57C193.609 917.694 183.249 926.111 168.819 924.583C166.576 924.346 164.714 923.579 163.379 921.723C162.103 916.071 174.745 910.912 179.077 909.151C200.05 900.625 221.263 887.203 242.354 879.515Z"/><path fill="#1F1F1F" transform="scale(0.175781 0.175781)" d="M724.892 818.841C734.5 821.874 749.664 826.885 759.566 828.28C756.217 832.243 746.411 842.149 742.414 845.762C738.474 844.217 728.237 839.381 724.584 841.304C723.061 846.622 740.866 858.203 745.93 859.676C750.744 858.607 753.13 857.205 756.824 853.893C764.682 846.846 771.983 839.07 779.534 831.694C780.021 831.413 780.509 831.132 780.996 830.851C785.462 830.955 791.578 831.216 795.846 831.029C803.726 830.686 812.061 829.958 819.728 828.48C807.81 838.119 792.426 847.861 780.038 857.237C764.804 868.767 750.114 880.738 733.295 889.901C729.869 884.369 723.017 874.47 718.443 870.35C703.328 874.399 694.922 890.634 680.952 899.866C673.986 897.011 669.267 895.095 662.891 891.064C677.343 873.164 693.255 856.014 708.008 838.335C713.484 831.773 719.012 825.029 724.892 818.841Z"/><path fill="#1F1F1F" transform="scale(0.175781 0.175781)" d="M859.542 822.041C863.292 823.78 867.926 826.395 871.655 828.361C864.721 834.222 854.974 841.011 847.547 846.404L809.703 873.933C799.824 881.154 789.829 888.173 779.97 895.41C769.567 903.047 759.118 912.124 748.397 919.213C706.81 946.713 661.078 970.414 612.886 983.495C611.352 983.958 611.138 984.075 609.494 984.193C606.137 982.606 603.031 976.674 600.467 973.121C660.928 957.51 719.255 924.719 769.426 887.759C780.838 879.352 792.057 870.639 803.515 862.224L834.263 839.531C842.54 833.418 850.62 827.184 859.542 822.041Z"/><path fill="#1F1F1F" transform="scale(0.175781 0.175781)" d="M771.606 270.677C779.513 273.045 805.399 281.116 810.632 285.558C816.817 290.807 855.793 345.104 854.939 351.257C853.631 352.624 854.414 352.138 852.393 352.564C825.631 345.239 795.01 338.525 767.732 331.879C768.605 313.27 769.77 289.064 771.606 270.677Z"/><path fill="#1F1F1F" transform="scale(0.175781 0.175781)" d="M55.268 948.407C58.8311 949.517 63.4099 951.747 67.0872 953.097C75.2394 956.092 84.5144 958.93 93.1718 959.871C132.608 964.158 172.998 958.177 212.348 957.607C238.621 957.227 266.41 959.756 292.739 960.534C306.729 960.947 316.643 959.852 330.218 959.295C329.801 963.275 329.457 965.278 328.504 969.138C315.881 977.89 248.363 974.519 230.501 973.887L162.989 971.303C127.223 970.139 88.9201 973.993 56.1105 956.877C55.6138 953.977 55.4763 951.33 55.268 948.407Z"/><path fill="#1F1F1F" transform="scale(0.175781 0.175781)" d="M949.349 703.879C953.832 705.75 958.295 707.671 962.735 709.642C961.605 734.228 952.217 780.777 941.243 802.823C934.321 799.791 926.672 797.136 919.533 794.518C912.273 791.825 904.997 789.175 897.705 786.568C901.693 779.261 908.933 768.441 913.511 761.144C925.626 742.162 937.573 723.073 949.349 703.879Z"/><path fill="#1F1F1F" transform="scale(0.175781 0.175781)" d="M145.525 882.949C147.098 883.811 148.788 886.621 149.837 888.163C147.699 890.001 145.718 892.014 143.913 894.181C132.762 907.794 131.428 926.46 133.142 943.303C110.796 943.509 95.7758 943.095 74.0495 937.213C65.3385 934.37 59.8052 932.801 63.6042 922.338C72.2881 898.422 96.9003 898.542 117.958 893.741C126.598 891.772 137.053 886.981 145.525 882.949Z"/><path fill="#1F1F1F" transform="scale(0.175781 0.175781)" d="M605.33 126.709C609.268 128.051 616.562 132.247 620.78 134.281C636.872 142.039 650.389 147.836 668.522 147.519C667.239 153.271 666.376 158.03 665.467 163.856C655.366 162.693 644.33 164.419 634.493 162.885C622.473 160.932 611.042 156.206 599.211 153.515C583.988 150.052 568.235 151.303 552.854 149.132C548.409 148.504 543.42 146.797 538.913 146.827C535.24 146.852 530.934 148.554 527.438 149.543C508.004 156.274 488.654 164.754 470.15 173.716C450.348 183.002 434.1 191.005 414.967 201.563C427.736 190.431 448.045 175.881 462.683 167.372C467.639 164.491 487.49 158.856 494.572 156.678C530.219 145.72 568.834 134.206 605.33 126.709Z"/><path fill="#1F1F1F" transform="scale(0.175781 0.175781)" d="M290.026 778.722C292.706 779.813 304.393 788.645 307.764 790.777C328.552 803.917 346.03 814.053 369.927 820.334C365.841 827.641 360.804 835.552 356.251 842.628C355.188 844.28 354.847 844.638 353.38 844.851C329.108 841.372 291.565 823.131 272.377 808.086C276.669 798.721 284.335 787.184 290.026 778.722Z"/><path fill="#1F1F1F" transform="scale(0.175781 0.175781)" d="M865.777 305.413C870.146 306.394 916.177 388.525 921.528 397.783C914.179 403.164 907.326 407.946 900.319 413.804L899.838 413.755C897.905 411.223 894.536 404.446 892.88 401.34C888.976 393.941 884.953 386.605 880.812 379.336C869.424 359.409 857.167 340.349 844.871 320.987C851.021 316.123 859.369 309.834 865.777 305.413Z"/><path fill="#1F1F1F" transform="scale(0.175781 0.175781)" d="M257.083 804.516C276.63 820.652 289.656 828.547 313.066 837.342C308.465 851.599 304.451 854.613 293.052 864.389C272.46 881.316 269.502 870.872 250.876 859.645C251.182 846.436 251.676 838.374 244.962 826.823C249.28 819.538 253.147 812.013 257.083 804.516Z"/><path fill="#1F1F1F" transform="scale(0.175781 0.175781)" d="M681.221 198.026C682.115 198.874 685.297 202.846 686.518 204.134C692.705 210.661 697.072 212.615 705.201 215.899C682.83 222.348 637.235 246.952 622.799 264.873C618.287 265.019 613.739 265.65 609.25 266.187C602.136 267.244 595.051 268.142 588.048 269.778C609.917 242.934 649.755 212.552 681.221 198.026Z"/><path fill="#1F1F1F" transform="scale(0.175781 0.175781)" d="M634.453 893.938C649.983 900.682 661.593 912.407 671.472 925.829C656.064 933.043 643.371 938.761 627.619 945.07C618.12 948.501 609.69 951.549 599.93 954.06C599.141 921.404 610.86 914.142 634.453 893.938Z"/><path fill="#1F1F1F" transform="scale(0.175781 0.175781)" d="M243.231 735.575C245.287 736.552 253.114 745.188 255.218 747.441C259.698 752.237 281.465 772.791 286.102 774.82L287.673 776.695C287.163 778.307 282.035 786.138 280.826 788.072C276.757 794.584 273.567 799.7 270.475 806.842C258.37 798.095 236.633 774.777 225.759 763.569C231.294 755.06 238.214 744.298 243.231 735.575Z"/><path fill="#1F1F1F" transform="scale(0.175781 0.175781)" d="M57.2085 936.207C79.6631 951.174 120.728 948.878 146.75 947.812C163.063 947.105 179.384 946.568 195.708 946.2C232.035 945.509 268.591 948.01 304.96 946.56C313.051 946.237 321.193 945.774 329.268 945.571C329.51 949.183 330.685 952.217 326.963 953.36C317.152 954.674 304.984 954.676 295.125 954.613C268.873 954.205 242.421 952.212 216.175 952.098C166.283 951.881 114.199 964.211 65.7297 947.791C59.0167 945.517 51.0125 945.158 57.2085 936.207Z"/><path fill="#1F1F1F" transform="scale(0.175781 0.175781)" d="M851.191 816.064C851.753 816.492 853.399 817.848 852.636 818.472C842.37 826.873 827.937 837.04 817.526 844.66C804.171 854.294 790.874 864.007 777.636 873.802C768.867 880.379 759.749 887.94 750.793 894.058C739.102 902.046 725.998 910.165 713.716 917.358C677.946 938.305 638.806 958.762 597.921 967.224C596.812 965.544 595.726 963.146 594.815 961.294C608.858 957.432 622.112 953.478 635.812 948.261C680.222 931.348 721.76 906.083 760.846 879.236C769.45 873.171 777.532 866.373 786.011 860.141C799.307 850.368 812.848 840.873 826.324 831.348C828.571 829.759 831.13 828.093 833.507 826.747C839.596 823.3 845.435 820.063 851.191 816.064Z"/><path fill="#1F1F1F" transform="scale(0.175781 0.175781)" d="M715.569 873.356C720.647 875.482 727.953 887.031 731.138 891.629C713.268 903.334 693.596 914.179 674.664 924.059C666.139 912.68 660.968 906.903 649.284 898.75C645.503 896.213 640.886 893.619 636.923 891.268C640.957 887.334 645.292 882.319 649.122 878.095C654.833 879.3 659.477 881.316 664.801 883.646C663.266 885.778 659.337 890.816 661.246 893.278C664.773 897.825 676.557 902.238 681.893 903.596C693.285 897.638 705.136 881.999 715.569 873.356Z"/><path fill="#1F1F1F" transform="scale(0.175781 0.175781)" d="M679.189 144.278C684.864 144.965 703.653 150.974 708.451 153.66C731.425 166.522 738.128 187.902 745.371 210.761C740.778 208.86 734.945 205.083 730.713 202.623C710.757 191.021 701.64 174.988 689.008 156.693C685.983 152.311 681.768 149.103 679.189 144.278Z"/><path fill="#1F1F1F" transform="scale(0.175781 0.175781)" d="M646.835 775.979C647.775 775.791 669.939 789.99 672.699 791.69C661.279 800.56 651.97 809.316 641.458 819.14L636.229 814.607C625.382 805.346 614.646 795.957 604.021 786.443C622.335 785.622 630.889 785.032 646.835 775.979Z"/><path fill="#1F1F1F" transform="scale(0.175781 0.175781)" d="M677.501 146.401C680.245 148.424 684.996 154.88 687.087 157.869C699.846 176.112 708.17 193.857 727.885 206.085C729.43 207.044 730.686 207.44 731.167 208.841L729.847 209.56C724.212 211.828 718.068 212.522 712.069 211.57C693.842 208.55 682.113 191.114 679.068 174.12C677.657 166.249 676.147 154.292 677.501 146.401Z"/><path fill="#1F1F1F" transform="scale(0.175781 0.175781)" d="M279.684 612.085C290.237 617.412 291.409 618.774 303.131 616.105C300.054 622.73 292.846 634.928 289.125 641.738L258.712 697.208L254.708 703.698C249.191 702.293 242.618 701.796 236.622 700.431C240.53 699.852 246.492 699.999 249.713 697.419C258.69 690.232 258.276 672.421 263.462 662.967C267.707 655.23 271.792 653.117 274.573 644.173C278.011 633.116 277.653 623.234 279.574 612.665L279.684 612.085Z"/><path fill="#1F1F1F" transform="scale(0.175781 0.175781)" d="M324.38 885.572C325.889 887.378 327.294 896.536 327.78 899.407C306.326 907.303 257.554 923.969 235.054 917.247C233.48 913.114 239.807 905.777 242.366 902.31C246.757 904.096 251.933 906.181 256.752 906.233C278.597 906.466 304.201 893.181 324.38 885.572Z"/><path fill="#1F1F1F" transform="scale(0.175781 0.175781)" d="M702.56 139.721C721.473 138.491 735.522 149.522 744.662 165.41C754.688 182.838 754.069 192.152 748.971 210.817C747.539 207.096 746.161 202.748 744.852 198.937C743.297 192.724 737.527 179.706 734.536 174.308C722.128 151.913 704.103 148.871 681.672 142.577C689.261 141.038 694.926 140.257 702.56 139.721Z"/><path fill="#1F1F1F" transform="scale(0.175781 0.175781)" d="M270.531 604.29C271.068 604.769 272.245 605.759 272.357 606.566C273.779 616.839 270.133 637.724 266.124 646.827C262.738 652.65 259.031 656.451 256.375 662.758C253.912 668.607 250.314 691.862 244.805 694.171C242.102 694.356 240.562 693.495 238.512 691.777C238.062 679.461 247.535 665.738 237.496 656.149C247.157 647.271 258.954 635.719 263.735 623.438C266.133 617.277 268.001 610.703 270.531 604.29Z"/><path fill="#1F1F1F" transform="scale(0.175781 0.175781)" d="M464.954 183.003L465.445 183.096C466.174 184 471.399 201.428 472.506 204.199C450.622 210.32 429.842 215.552 407.069 217.879C404.149 218.286 401.111 218.608 398.174 218.959C419.147 205.391 441.569 192.04 464.954 183.003Z"/><path fill="#1F1F1F" transform="scale(0.175781 0.175781)" d="M710.845 125.675C711.032 125.643 711.22 125.611 711.407 125.58C719.926 124.713 728.463 127.04 735.363 132.111C751.693 143.973 755.919 166.86 758.872 185.636C755.818 177.979 751.11 169.586 746.929 162.485C743.088 156.189 739.212 151.186 733.495 146.473C716.342 132.332 698.198 138.384 678.485 140.277C690.697 131.925 695.161 127.905 710.845 125.675Z"/><path fill="#1F1F1F" transform="scale(0.175781 0.175781)" d="M234.817 829.907C236.66 829.632 240.444 830.895 241.726 832.326C247.425 838.688 246.591 850.292 246.504 858.21C237.481 856.292 231.759 860.603 223.133 864.412L221.823 864.725C219.665 863.249 212.793 848.776 211.06 845.347C218.369 840.036 227.15 834.681 234.817 829.907Z"/><path fill="#1F1F1F" transform="scale(0.175781 0.175781)" d="M647.672 121.229C652.133 121.132 669.439 136.989 672.574 140.826L668.827 143.677C658.227 144.086 651.257 142.661 641.242 139.615C631.82 136.663 620.041 130.636 611.616 125.437C623.566 123.499 635.597 122.095 647.672 121.229Z"/><path fill="#1F1F1F" transform="scale(0.175781 0.175781)" d="M657.175 167.008C659.921 166.919 662.427 167.344 665.152 167.691C665.351 170.308 665.462 173.088 665.608 175.722C647.436 187.81 634.051 189.798 612.615 187.344C609.71 186.847 607.349 186.082 604.55 185.232C604.428 182.102 604.113 178.699 603.884 175.55C626.571 179.496 636.589 178.54 657.175 167.008Z"/><path fill="#1F1F1F" transform="scale(0.175781 0.175781)" d="M665.851 178.93C666.576 181.154 667.809 188.976 668.732 192.556C647.858 201.227 630.273 203.913 608.357 198.307C606.803 197.839 606 197.748 604.809 196.635C603.727 194.354 604.542 190.969 604.864 188.269C628.709 194.643 645.466 192.462 665.851 178.93Z"/><path fill="#1F1F1F" transform="scale(0.175781 0.175781)" d="M822.739 269.008L823.107 269.065C828.076 272.83 847.403 301.937 851.536 308.298C848.412 310.442 844.52 313.626 841.446 315.992C831.246 301.837 822.105 289.519 811.267 275.817C814.964 273.455 818.936 271.22 822.739 269.008Z"/><path fill="#1F1F1F" transform="scale(0.175781 0.175781)" d="M914.491 410.509C917.638 413.406 927.324 431.836 930.06 436.919C926.175 440.584 920.925 444.875 916.791 448.398L915.903 449.08C914.25 447.82 904.515 423.554 902.547 418.979C906.709 415.725 910.127 413.398 914.491 410.509Z"/><path fill="#1F1F1F" transform="scale(0.175781 0.175781)" d="M523.14 155.461C526.23 155.386 538.046 162.236 542.247 163.714C549.833 166.384 555.746 167.723 563.527 169.492L561.981 175.71C557.861 175.586 553.723 175.095 549.62 174.671C534.745 173.152 520.806 170.381 507.365 163.667C511.812 160.93 518.436 157.639 523.14 155.461Z"/><path fill="#1F1F1F" transform="scale(0.175781 0.175781)" d="M663.838 197.996C664.176 198.054 664.514 198.111 664.852 198.169C659.389 202.393 642.687 212.881 636.5 216.44C622.26 214.194 620.493 215.773 606.88 208.101L600.872 204.38L603.43 198.974C626.401 206.723 641.157 205.311 663.838 197.996Z"/><path fill="#1F1F1F" transform="scale(0.175781 0.175781)" d="M591.31 155.863C600.924 155.987 617.609 162.677 627.744 165.1C637.138 167.345 640.361 167.586 649.941 168.136L645.75 170.04C629.401 176.211 620.058 175.129 603.215 172.282C600.133 164.382 598.546 160.774 591.31 155.863Z"/><path fill="#1F1F1F" transform="scale(0.175781 0.175781)" d="M762.677 829.036C767.071 829.294 773.364 830.463 777.103 830.516C768.532 838.605 756.308 851.641 746.575 857.165C738.897 853.864 734.304 849.456 728.226 843.846C733.686 845.95 738.221 847.144 743.945 848.179C750.386 842.19 756.503 835.378 762.677 829.036Z"/><path fill="#1F1F1F" transform="scale(0.175781 0.175781)" d="M943.352 556.427C945.342 559.488 951.376 586.655 952.661 592.115C949.164 590.998 945.792 589.639 942.372 588.309C937.491 586.514 932.626 584.676 927.778 582.794C931.733 574.673 938.383 564.099 943.352 556.427Z"/><path fill="#1F1F1F" transform="scale(0.175781 0.175781)" d="M536.32 149.993C539.635 149.537 553.985 151.943 558.25 152.481C563.722 153.172 569.126 153.685 574.75 154.138C570.268 158.159 568.606 159.871 565.399 164.93C565.091 165.557 564.922 165.591 564.384 166.113C555.787 166.789 536.159 158.596 528.605 153.639C531.133 152.248 533.688 151.159 536.32 149.993Z"/><path fill="#1F1F1F" transform="scale(0.175781 0.175781)" d="M234.776 662.382C239.545 671.107 226.624 685.331 235.813 697.551C232.763 696.79 229.563 696.243 226.467 695.656L222.008 695.134C222.091 689.245 222.205 683.356 222.349 677.469C225.875 672.391 230.695 667.11 234.776 662.382Z"/><path fill="#1F1F1F" transform="scale(0.175781 0.175781)" d="M206.48 848.016C208.983 850.544 214.971 863.102 216.975 867.093C213.606 868.761 208.72 870.635 205.159 872.123L204.661 872.249C202.868 870.84 196.616 858.054 195.213 855.332C198.908 852.801 202.665 850.361 206.48 848.016Z"/><path fill="#1F1F1F" transform="scale(0.175781 0.175781)" d="M906.906 448.33C908.822 450.035 917.466 472.82 919.012 476.656C916.813 475.549 914.29 474.504 912.018 473.505L896.166 467.262C899.024 461.515 903.623 454.031 906.906 448.33Z"/><path fill="#1F1F1F" transform="scale(0.175781 0.175781)" d="M679.915 833.314C686.517 834.063 693.41 839.826 698.134 844.079C695.567 846.693 692.849 849.826 690.363 852.565L689.798 853.076C688.35 853.265 685.917 851.189 684.572 850.206C680.775 847.429 677.502 845.759 673.19 843.97L679.915 833.314Z"/><path fill="#1F1F1F" transform="scale(0.175781 0.175781)" d="M696.592 805.98C704.394 809.975 711.808 813.309 719.785 816.897C717.355 819.443 715.149 822.13 712.883 824.821L712.095 825.634C710.696 825.835 703.035 820.164 700.715 818.964C697.168 817.129 695.057 816.269 691.282 814.853C692.858 811.777 694.748 808.904 696.592 805.98Z"/><path fill="#1F1F1F" transform="scale(0.175781 0.175781)" d="M688.772 819.841C697.029 822.365 701.842 825.005 708.311 830.556C706.454 833.436 703.711 836.694 701.527 839.433C694.451 833.877 690.67 831.836 682.348 828.6C684.248 825.683 686.652 822.642 688.772 819.841Z"/><path fill="#1F1F1F" transform="scale(0.175781 0.175781)" d="M670.355 848.608C677.753 850.338 680.385 852.921 685.402 858.201C683.545 860.854 680.44 864.789 678.141 866.988C672.761 863.102 668.854 861.458 662.624 859.465C665.159 855.817 667.737 852.197 670.355 848.608Z"/><path fill="#1F1F1F" transform="scale(0.175781 0.175781)" d="M659.634 864.378C665.587 864.839 670.488 867.522 675.247 870.911C673.157 873.927 669.968 877.368 667.49 880.193C662.322 878.105 657.379 875.96 651.986 874.531L659.634 864.378Z"/><path fill="#1F1F1F" transform="scale(0.175781 0.175781)" d="M190.447 858.155C192.936 859.944 198.133 871.668 199.68 874.955C196.656 876.208 193.479 877.699 190.473 879.046C188.35 878.402 182.654 867.227 181.139 864.532C184.189 862.33 187.292 860.204 190.447 858.155Z"/><path fill="#1F1F1F" transform="scale(0.175781 0.175781)" d="M672.212 148.896L672.615 149.324C673.715 156.277 672.509 167.315 673.805 174.892C674.669 179.945 678.452 187.159 678.47 192.272C678.472 192.905 676.899 193.462 676.093 193.88C675.374 194.042 674.481 194.167 673.739 194.292C670.541 192.16 670.487 185.409 670.084 181.815C668.808 170.424 669.191 159.948 672.212 148.896Z"/><path fill="#1F1F1F" transform="scale(0.175781 0.175781)" d="M176.034 867.481C177.937 868.879 183.303 878.963 184.745 881.571C181.811 883.054 178.259 884.579 175.231 885.969L174.639 885.813C172.225 882.567 168.933 876.501 166.798 872.826C169.679 870.953 173.012 869.173 176.034 867.481Z"/><path fill="#1F1F1F" transform="scale(0.175781 0.175781)" d="M161.618 875.742C163.968 877.549 167.977 885.361 169.572 888.304L160.505 892.595C157.367 888.515 154.618 884.875 151.697 880.614C155.232 878.588 157.87 877.399 161.618 875.742Z"/><path fill="#1F1F1F" transform="scale(0.175781 0.175781)" d="M654.769 120.52C656.038 120.454 657.307 120.4 658.577 120.359C672.999 119.898 675.065 123.617 674.994 137.718C673.633 136.906 666.901 130.183 665.146 128.599C661.407 125.226 658.888 123.408 654.769 120.52Z"/><path fill="#1F1F1F" transform="scale(0.175781 0.175781)" d="M962.795 682.851C964.123 684.806 963.494 699.339 963.453 702.557L957.876 700.218C956.506 699.655 954.894 698.873 953.522 698.248C955.756 693.651 959.959 687.088 962.795 682.851Z"/><path fill="#1F1F1F" transform="scale(0.175781 0.175781)" d="M533.403 177.053C536.82 177.319 557.766 180.004 560.47 180.708C561.358 181.895 561.234 183.734 561.341 185.323C553.639 186.015 539.865 181.013 533.403 177.053Z"/><path fill="#1F1F1F" transform="scale(0.175781 0.175781)" d="M652.929 87.09L659.426 86.9785C660.944 91.6407 661.563 94.3561 662.482 99.2009L655.293 99.0018C654.44 95.128 653.693 90.9956 652.929 87.09Z"/><path fill="#1F1F1F" transform="scale(0.175781 0.175781)" d="M662.168 86.1708C667.503 86.7936 668.522 94.6834 669.707 99.1308C668.546 99.075 667.915 98.997 666.767 98.8622C663.967 96.4779 663.023 89.9499 662.168 86.1708Z"/><path fill="#1F1F1F" transform="scale(0.175781 0.175781)" d="M224.562 729.196L225.148 729.652C225.693 731.65 225.611 735.443 225.655 737.656L220.676 733.987C219.039 732.785 217.202 730.957 215.686 729.539C218.58 729.485 221.654 729.31 224.562 729.196Z"/><path fill="#1F1F1F" transform="scale(0.175781 0.175781)" d="M616.093 216.514C619.105 217.059 630.219 218.857 632.164 220.119L632.048 221.083C626.82 223.564 620.047 220.138 616.093 216.514Z"/><path fill="#1F1F1F" transform="scale(0.175781 0.175781)" d="M669.629 109.981C671.677 111.025 671.793 111.047 673.218 112.787L673.461 113.983C672.247 115.532 671.435 115.088 669.464 115.018C668.481 112.606 668.137 112.175 669.629 109.981Z"/><path fill="#29392C" transform="scale(0.175781 0.175781)" d="M656.986 103.715C659.677 103.276 661.605 103.03 664.044 104.268C661.392 104.638 659.402 104.892 656.986 103.715Z"/></svg>