<?xml version="1.0" encoding="utf-8" ?><svg xmlns="http://www.w3.org/2000/svg" xmlns:xlink="http://www.w3.org/1999/xlink" width="180" height="180" viewBox="0 0 180 180"><path fill="#202020" transform="matrix(0.175781 0 0 0.175781 -6.10352e-05 0)" d="M139.127 0L883.264 0C894.943 2.58449 903.276 3.29979 915.16 6.97658C949.978 18.0409 979.846 40.9049 999.615 71.6279C1009.54 87.4071 1016.65 104.79 1020.62 123.002C1021.72 128.154 1022.85 138.659 1024 142.685L1024 880.234C1021.61 892.143 1021.17 900.184 1017.65 912.509C1007.25 947.693 984.737 978.063 954.099 998.249C935.592 1010.47 914.677 1018.78 892.82 1022.2C889.938 1022.65 886.71 1023.25 883.914 1024L140.244 1024C134.51 1022.47 126.327 1021.39 119.976 1019.9C102.282 1015.72 85.4786 1008.41 70.3569 998.322C38.6176 977.58 15.6086 945.897 5.70587 909.297C2.75072 898.175 2.23172 889.037 0 878.207L0 143.25C0.534782 141.473 1.02062 138.085 1.24718 136.147C8.1137 77.4036 49.6858 27.4751 105.318 8.17369C116.512 4.29014 127.31 2.65994 139.127 0Z"/><path fill="#98FD9E" transform="matrix(0.175781 0 0 0.175781 -6.10352e-05 0)" d="M579.307 32.2196C626.654 29.3805 671.509 72.2148 681.519 116.37L678.807 122.023L679.572 132.751C708.519 107.278 748.365 118.293 758.667 155.656C760.574 162.574 767.137 184.947 764.151 190.748C762.606 191.81 760.861 191.53 758.933 191.505C757.014 199.174 757.329 214.122 750.375 218.588C747.901 219.011 747.315 217.744 745.172 217.878C745.405 219.817 749.395 228.498 750.46 230.951C772.796 235.911 792.469 254.548 808.131 270.517C814.725 266.379 817.979 264.293 825.367 261.551C835.849 272.56 847.803 291.556 856.148 304.374C860.135 300.894 862.852 299.273 867.92 297.846C877.549 306.087 922.739 385.183 928.116 399.209C925.452 403.157 923.802 403.952 919.865 406.515C926.287 417.169 932.893 426.771 937.152 438.554C931.405 444.678 924.101 450.152 917.377 455.193C957.816 564.752 993.131 688.827 948.269 802.58C942.889 816.221 937.796 829.163 928.619 840.796C907.415 840.617 898.432 838.779 878.55 831.655C852.306 851.379 825.873 870.849 799.253 890.063C782.568 902.211 766.09 915.258 749.06 926.862C718.959 947.244 686.63 964.122 652.701 977.169C636.89 983.246 622.698 988.511 605.951 991.274C604.889 990.304 603.894 989.262 602.974 988.156C599.594 984.114 588.345 967.19 588.674 961.136C588.813 958.589 591.845 956.651 593.841 955.28C592.952 945.809 593.236 931.408 598.069 922.993C608.733 904.424 630.935 890.767 643.779 874.16C661.147 851.702 675.133 826.106 691.023 802.439C687.471 799.95 682.36 796.973 678.584 794.616C666.54 806.164 654.014 817.199 641.042 827.693C632.162 819.289 621.363 810.105 612.124 801.876L555.189 751.102C521.169 720.652 495.856 700.254 473.62 659.992C450.042 701.407 425.721 742.395 400.67 782.937C385.911 807.113 373.389 828.782 357.298 852.297L350.114 850.375C340.207 847.797 330.367 844.971 320.602 841.901L318.398 850.661C324.707 863.081 328.562 873.27 331.843 886.705C337.422 907.727 335.574 927.882 335.489 949.104C335.41 969.027 340.349 976.591 314.696 979.718C292.699 982.399 270.094 981.789 247.88 981.138C223.47 980.417 199.063 979.573 174.661 978.606C159.82 978.073 144.93 977.749 130.099 977.267C104.824 976.445 71.3358 975.612 50.3799 959.898C49.0774 955.966 48.2825 949.184 48.3189 944.993C48.3895 936.854 50.362 933.946 55.6918 928.618C57.2563 919.789 59.584 912.216 65.8689 905.511C66.3543 904.992 66.8573 904.491 67.3769 904.007C79.8882 892.345 102.176 891.129 118.11 886.66C126.525 884.389 134.469 880.972 142.363 877.281C167.822 865.376 191.468 849.864 215.181 834.876C220.357 831.605 225.29 828.26 230.877 825.692C233.899 824.303 236.337 824.437 239.572 824.358C243.332 815.981 247.52 807.804 252.12 799.858C240.416 788.982 227.862 776.57 217.885 764.118C224.63 751.774 234.144 739.789 240.988 727.242C237.439 728.064 235.141 728.348 231.507 728.76C231.568 732.541 232.026 742.127 226.164 742.336C218.545 742.609 212.629 733.427 206.918 729.38C202.049 725.93 196.208 723.557 191.621 719.673C183.829 712.963 184.068 699.921 182.525 690.528C181.83 686.067 184.168 675.633 185.49 671.262C196.552 634.678 223.796 593.402 248.646 565.045C247.327 560.121 245.733 553.15 249.253 548.939C255.29 541.719 261.991 535.12 268.284 528.113C282.833 511.911 296.907 495.26 312.655 480.185C319.176 473.939 326.736 468.227 333.864 462.616C328.968 448.626 322.978 434.155 317.532 420.358L295.554 364.002L331.786 363.97C339.743 386.352 348.45 409.883 355.612 432.469C358.25 426.013 361.54 414.932 363.879 408.014C368.865 393.227 374.206 378.564 379.899 364.035C391.365 363.925 403.763 363.792 415.164 364.219C407.761 385.507 397.686 408.188 389.37 429.374C404.42 419.438 419.572 410.418 434.999 401.103L435.023 363.991C445.676 363.893 457.953 363.765 468.5 364.258L468.52 378.301C475.56 373.432 492.428 362.084 496.272 354.804C499.361 348.986 501.818 341.207 506.291 336.224C515.067 326.447 524.23 317.734 532.901 307.719C527.093 303.957 526.37 300.969 521.572 296.476C519.529 294.562 514.084 293.654 511.965 290.4C508.776 285.504 511.074 277.592 506.358 273.672C500.754 269.013 489.942 270.388 485.193 264.09C478.946 255.804 491.918 246.791 492.45 236.694C493.13 223.785 482.845 219.982 475.634 210.791L475.152 210.168C461.767 213.741 399.155 230.602 389.747 223.316C383.173 212.307 447.326 169.378 457.57 163.218C456.295 143.007 456.22 126.622 462.444 106.967C479.322 53.664 528.396 35.1965 579.307 32.2196Z"/><path fill="#202020" transform="matrix(0.175781 0 0 0.175781 -6.10352e-05 0)" d="M631.849 263.759C656.308 245.11 682.083 229.605 711.263 219.515C719.896 216.53 725.542 218.699 735.866 214.165C740.097 220.179 743.088 228.42 745.721 235.303C720.179 238.449 679.006 244.761 655.352 255.856C665.577 254.026 675.705 250.969 686.003 248.989C707.572 244.844 730.558 242.096 751.86 237.153C769.717 244.038 792.257 260.717 804.292 275.689C797.893 272.971 773.658 262.82 767.623 264.421C766.36 265.707 765.361 268.386 765.211 270.139C763.339 292.026 761.255 314.774 760.86 336.68C776.238 341.24 790.051 344.032 805.435 347.786C820.367 351.43 834.7 355.411 849.782 358.895C841.499 373.718 833.928 389.128 826.267 404.286C819.83 417.023 812.683 429.939 806.973 442.995C832.738 453.385 860.321 462.13 886.722 470.983L860.778 520.466C854.496 532.378 847.777 544.541 842.288 556.808C851.234 560.971 865.457 565.714 874.977 569.265C889.421 574.767 903.801 580.435 918.113 586.269C905.332 608.388 893.446 631.265 881.329 653.759C878.07 659.81 874.686 666.236 871.964 672.53C895.789 682.062 919.565 691.715 943.292 701.49L910.095 754.214C903.02 765.455 894.53 778.251 888.586 789.964C905.397 796.788 922.066 801.898 939.139 809.163C934.737 817.706 930.372 826.241 925.378 834.453C906.669 831.511 904.035 834.49 883.878 826.324C833.644 805.972 798.273 757.551 777.482 709.131C765.637 681.543 756.299 652.778 744.33 624.642C762.484 647.799 776.297 665.323 784.615 694.074C783.368 695.267 782.967 695.49 782.383 697.143L782.883 697.912C785.389 698.278 787.609 697.189 788.49 694.781C777.011 661.759 768.078 647.303 745.047 620.85C750.755 624.61 760.894 633.711 766.303 638.384C781.003 650.916 795.225 664 808.936 677.607C819.629 688.183 828.974 698.528 840.245 708.58C826.17 684.795 776.157 642.19 753.705 622.757C748.095 617.9 730.831 606.74 723.81 601.937C714.094 595.292 699.157 585.149 688.631 580.305C703.57 596.318 704.518 591.479 712.377 613.429L722.762 642.777C725.978 652.078 727.297 660.11 732.936 668.219C731.789 653.013 717.751 616.809 711.913 601.255C716.791 604.581 731.707 614.255 734.433 618.839C746.574 639.252 753.848 667.217 762.252 689.497C769.02 707.414 776.862 724.906 785.737 741.878C776.769 746.618 764.469 752.14 754.383 753.344C720.516 757.388 685.932 726.811 660.092 708.373C637.621 692.339 615.929 674.626 594.212 657.926C570.536 639.236 546.214 621.13 522.396 602.606C514.056 596.12 503.827 587.517 494.533 582.881C502.657 592.186 519.016 604.425 529 612.049L569.808 643.205C595.146 662.929 620.607 682.494 646.19 701.9C661.886 713.755 677.133 725.244 693.481 736.178C727.783 759.12 750.175 764.603 787.57 744.355C805.553 772.279 820.078 792.953 846.746 813.121C833.347 818.946 821.102 822.239 806.451 823.605C781.464 825.896 756.277 822.724 732.639 814.31C699.894 802.723 661.154 777.248 632.408 757.55C579.894 721.094 529.095 682.225 480.178 641.069C478.516 627.867 476.202 605.783 472.388 593.82L472.311 594.29L472.193 595.075C470.446 606.157 473.544 631.448 475.547 642.864C463.985 664.42 450.981 685.948 438.575 707.076C416.868 744.324 394.632 781.26 371.874 817.875C342.918 809.03 315.931 794.703 292.38 775.675C318.03 730.128 344.662 687.92 373.351 644.289C385.449 625.89 407.299 597.094 415.474 578.238C405.44 588.677 391.456 611.475 382.735 624.387C349.531 672.931 318.454 722.896 289.592 774.141C274.507 762.027 257.959 747.081 245.487 732.269C250.786 721.805 259.615 708.789 265.742 698.023C280.316 672.404 294.436 646.529 308.096 620.41C315.108 607.043 323.534 591.653 329.573 578.01C343.998 580.36 356.236 578.932 369.57 573.096C367.974 567.296 366.448 561.477 364.992 555.64C337.384 566.935 320.868 557.164 323.025 526.248C324.908 499.26 340.593 494.524 363.272 504.163C365.696 498.67 367.696 492.806 369.74 487.147C358.093 481.121 345.542 478.843 332.699 482.103C321.133 485.063 311.256 492.576 305.317 502.932C297.563 516.197 295.783 532.703 299.825 547.468C303.677 561.537 311.616 569.238 323.922 576.221C317.925 586.671 312.658 597.7 306.453 608.149C295.179 613.194 287.073 610.714 278.252 602.709C265.028 590.709 254.465 571.376 253.323 553.436C259.797 546.112 267.198 539.312 273.702 531.936C291.429 511.83 308.275 490.925 329.639 474.48C333.781 471.292 337.526 467.955 341.977 465.06C351.845 464.42 362.929 464.809 372.862 464.958C376.488 456.65 380.956 445.705 385.467 438.16C402.291 428.595 418.313 418.287 434.953 408.697L434.919 464.407L468.52 464.421L468.5 385.733C479.756 378.064 487.231 372.711 497.431 363.893C503.551 356.493 504.532 350.217 509.812 342.613C514.623 335.686 522.796 329.302 527.965 323.302C541.94 307.079 554.54 291.025 574.398 281.339C581.269 277.988 588.025 275.733 595.693 274.127C610.087 271.114 624.933 269.977 639.588 268.258C664.997 265.277 690.768 261.099 716.41 262.259C726.379 262.709 730.761 264.189 739.945 267.283L739.602 267.026C728.757 259.044 720.144 257.588 706.636 257.438C681.931 257.163 656.277 260.107 631.849 263.759Z"/><path fill="#98FD9E" transform="matrix(0.175781 0 0 0.175781 -6.10352e-05 0)" d="M497.431 363.893L546.772 363.958C560.983 363.967 585.05 361.779 595.861 373.086C604.543 382.165 605.316 397.332 595.363 406.295C592.898 408.491 590.154 410.354 587.203 411.835C603.679 419.367 610.913 428.503 603.807 447.231C591.207 468.813 557.587 464.316 536.008 464.267L497.568 464.395L497.703 397.871C497.688 386.976 497.878 374.725 497.431 363.893Z"/><path fill="#202020" transform="matrix(0.175781 0 0 0.175781 -6.10352e-05 0)" d="M540.531 424.263C549.193 423.95 560.738 423.007 568.748 426.979C572.907 429.041 572.656 433.799 570.231 437.164C568.238 439.93 564.992 439.969 561.869 440.412C551.265 440.626 540.221 440.543 529.587 440.593L529.512 424.463L540.531 424.263Z"/><path fill="#202020" transform="matrix(0.175781 0 0 0.175781 -6.10352e-05 0)" d="M544.413 386.741C550.458 386.591 568.092 386.268 570.371 395.539C571.732 401.076 559.429 402.511 555.143 402.78L530.415 402.755L530.453 387.131C535.107 387.045 539.761 386.915 544.413 386.741Z"/><path fill="#98FD9E" transform="matrix(0.175781 0 0 0.175781 -6.10352e-05 0)" d="M635.978 363.999C664.701 363.381 695.462 363.834 724.317 363.996C724.032 371.676 724.121 379.715 724.101 387.427L668.441 387.418C668.431 391.608 668.379 395.798 668.284 399.987L719.011 399.987L719.022 423.715L675.375 423.718L668.021 423.706L668.028 438.104C687.356 437.96 706.684 437.921 726.012 437.987L726.124 463.906C696.007 464.157 665.889 464.169 635.773 463.942C635.512 452.401 635.84 440.638 635.867 429.085L635.978 363.999Z"/><path fill="#98FD9E" transform="matrix(0.175781 0 0 0.175781 -6.10352e-05 0)" d="M385.898 480.446C393.329 480.214 401.986 480.472 409.509 480.512L409.505 519.374L440.392 519.373L440.489 480.426C448.274 480.279 456.653 480.474 464.483 480.513C464.709 504.5 464.685 551.118 464.237 577.204C463.985 577.471 463.733 577.738 463.481 578.005L440.235 578.014C439.578 565.521 440.107 550.638 440.31 538.003L409.52 538.021C409.23 551.274 409.235 564.729 409.092 578.011L385.493 577.956L385.898 480.446Z"/><path fill="#98FD9E" transform="matrix(0.175781 0 0 0.175781 -6.10352e-05 0)" d="M650.187 482.468L673.94 482.5C674.017 496.682 673.923 510.865 673.658 525.045C676.717 520.549 680.017 514.383 682.81 509.524C687.976 500.485 693.188 491.471 698.445 482.485C707.701 482.438 716.957 482.47 726.213 482.58C717.131 497.91 706.523 513.135 696.847 528.199C703.327 538.289 709.853 549.443 716.119 559.744L726.457 577.901C718.15 578.174 708.994 578.001 700.623 578.009C692.422 563.676 682.547 549.2 674.062 534.79C673.823 548.99 674.028 563.769 674.023 578.015L650.068 578.123C649.163 547.77 650.238 513.155 650.187 482.468Z"/><path fill="#98FD9E" transform="matrix(0.175781 0 0 0.175781 -6.10352e-05 0)" d="M484.569 480.499L547.996 480.593L548.022 500.015C534.936 500.038 522.206 500.087 509.125 499.533C508.888 505.669 509.03 512.727 509.02 518.93C519.54 518.465 532.592 518.753 543.095 518.983L543.08 538.009L508.763 538.024L508.51 543.406L508.497 558.493L547.987 558.495C548.186 564.832 548.091 571.639 548.108 578.013L484.597 577.94C483.612 547.124 484.532 511.702 484.569 480.499Z"/><path fill="#98FD9E" transform="matrix(0.175781 0 0 0.175781 -6.10352e-05 0)" d="M549.777 474.028C555.913 476.408 570.034 486.321 576.232 490.511C591.783 476.578 616.424 474.864 634.204 485.518C631.449 491.004 628.312 497.356 625.977 502.98C614.712 498.71 606.16 496.706 594.889 502.887C600.372 506.28 605.806 509.754 611.187 513.306C620.852 519.702 630.635 526.438 640.026 533.258C641.98 534.677 643.84 536.448 644.336 538.883C643.737 540.464 644.245 539.907 642.851 540.688C637.799 539.658 600.485 513.424 594.428 509.25L590.472 506.694C585.634 515.997 584 523.988 584.46 534.431C585.703 562.657 604.543 561.568 625.973 555.691C629.032 561.104 631.891 567.878 634.487 573.636C631.159 575.098 627.724 576.301 624.211 577.235C601.002 583.419 569.346 578.036 563.312 550.881C558.334 528.478 560.884 513.771 572.691 494.603C565.85 490.141 556.202 484.326 550.578 478.409C549.148 476.905 549.55 475.751 549.777 474.028Z"/><path fill="#98FD9E" transform="matrix(0.175781 0 0 0.175781 -6.10352e-05 0)" d="M607.891 278.65C633.873 279.724 645.631 294.797 658.253 316.025C661.594 321.644 672.785 342.086 671.79 347.684L671.021 347.24C667.901 341.728 665.131 335.608 662.182 329.958C651.587 309.655 637.938 286.55 613.787 281.309C611.204 280.748 608.517 280.774 606.079 279.741L606.23 279.204L607.891 278.65Z"/><path fill="#202020" transform="matrix(0.175781 0 0 0.175781 -6.10352e-05 0)" d="M576.001 38.7154C583.867 38.3595 591.748 38.8577 599.507 40.2013C624.155 44.7218 644.638 62.3808 658.469 82.5577C655.294 82.8802 651.083 82.6588 649.137 85.4573C648.275 90.6527 651.423 102.485 652.856 108.036C655.657 107.966 668.35 106.164 665.696 113.926C664.541 114.972 657.96 114.806 656.513 114.822C616.316 115.266 578.392 125.949 540.061 136.927C514.644 144.3 489.429 152.563 464.045 160.047C463.981 159.245 463.924 158.442 463.877 157.639C459.446 82.6894 503.268 42.957 576.001 38.7154Z"/><path fill="#202020" transform="matrix(0.175781 0 0 0.175781 -6.10352e-05 0)" d="M582.753 157.064C600.683 159.043 600.902 180.466 600.232 194.058C598.5 186.281 596.548 174.849 586.969 172.509C585.727 172.205 585.919 172.204 584.906 172.847C585.156 174.507 591.928 177.281 593.642 180.929C599.973 194.406 596.58 207.242 583.208 213.982C580.734 211.687 579.623 211.003 576.804 209.188C578.394 212.63 579.04 213.651 581.234 216.764C582.315 235.708 574.594 247.614 567.789 264.418C580.57 247.665 584.591 239.354 584.451 218.304C591.937 217.115 593.528 216.078 598.17 210.477C606.613 218.628 613.657 222.501 624.494 226.498C609.979 237.072 587.127 257.49 578.008 272.679C559.769 278.718 550.273 288.899 536.981 302.231C533.662 300.294 533.002 300.046 530.103 297.378C531.727 291.591 544.486 270.539 540.161 267.31C537.701 267.549 535.462 270 533.665 271.687C530.039 275.37 522.429 280.984 520.372 283.679L520.564 284.274C526.989 284.847 534.41 275.79 538.554 271.324C536.289 278.025 532.564 291.799 523.658 290.478C512.922 288.885 516.973 275.677 511.765 269.9C504.369 261.695 496.924 267.831 489.333 258.244C493.942 249.874 499.754 242.844 498.92 232.735C498.03 221.95 488.56 215.198 480.886 208.654C494.23 188.344 491.363 191.556 510.836 179.364C495.121 179.266 486.453 181.629 474.342 191.785C473.522 187.837 472.781 183.802 472.013 179.838C480.951 175.285 490.632 170.814 499.727 166.468C509.002 171.882 518.615 176.693 528.509 180.871C534.28 183.319 541.03 185.962 546.801 188.538C547.628 188.907 550.006 192.15 551.457 192.983C557.337 196.359 559.083 189.749 562.614 189.014C566.049 192.482 567.203 200.251 572.422 205.077C569.128 192.546 563.641 182.174 569.17 168.896C571.877 162.396 576.489 159.448 582.753 157.064Z"/><path fill="#98FD9E" transform="matrix(0.175781 0 0 0.175781 -6.10352e-05 0)" d="M515.054 197.564C516.196 197.692 515.698 197.442 516.488 198.422C516.538 204.379 502.172 217.93 497.287 220.796C495.494 217.545 495.128 215.272 494.433 211.722C494.933 210.728 495.458 209.747 496.008 208.78C500.267 201.322 507.453 199.6 515.054 197.564Z"/><path fill="#98FD9E" transform="matrix(0.175781 0 0 0.175781 -6.10352e-05 0)" d="M503.979 241.266C507.488 242.898 509.474 248.788 510.776 252.286C506.54 250.276 505.153 245.437 503.979 241.266Z"/><path fill="#2D362E" transform="matrix(0.175781 0 0 0.175781 -6.10352e-05 0)" d="M582.185 175.822C583.326 177.493 582.015 183.875 581.689 186.333L580.739 185.424C580.636 182.484 581.575 178.806 582.185 175.822Z"/><path fill="#202020" transform="matrix(0.175781 0 0 0.175781 -6.10352e-05 0)" d="M893.292 473.305C898.729 476.51 914.65 481.977 921.338 484.374C928.736 504.946 935.518 525.734 941.674 546.71C934.089 558.245 928.117 568.499 921.171 580.426L906.323 574.511C887.786 567.637 869.274 560.947 851.041 553.29C855.061 546.001 859.189 537.185 863.197 529.576L893.292 473.305Z"/><path fill="#202020" transform="matrix(0.175781 0 0 0.175781 -6.10352e-05 0)" d="M924.412 588.679C934.119 592.628 943.909 596.372 953.774 599.909C958.338 623.178 961.45 646.708 963.092 670.363C960.269 676.084 950.913 689.815 947.072 696.179C941.05 693.871 934.357 690.883 928.351 688.362C912.589 681.806 896.791 676.354 881.213 669.081C887.592 654.999 896.356 639.461 903.787 625.941C910.434 613.849 917.42 600.489 924.412 588.679Z"/><path fill="#202020" transform="matrix(0.175781 0 0 0.175781 -6.10352e-05 0)" d="M312.313 854.352C317.42 857.988 322.017 875.602 323.903 881.81L320.999 883.097C313.538 886.393 305.707 890.013 298.038 892.753C279.952 899.214 264.127 906.846 245.124 899.484C252.283 889.631 259.628 881.475 244.3 875.667C234.091 878.681 164.698 910.755 160.882 916.027C159.929 917.344 159.622 918.988 159.924 920.571C160.349 922.795 161.828 924.563 163.744 925.699C173.772 931.644 195.242 923.759 206.054 921.086C210.07 926.461 213.684 931.928 217.418 937.497C218.47 938.938 219.011 939.511 219.611 941.222C217.805 941.659 198.434 941.569 195.107 941.628C175.732 942.019 156.36 942.553 136.993 943.227C136.622 923.968 136.205 904.874 151.916 891.466C154.027 893.996 156.394 897.281 158.424 899.949C174.499 892.481 190.634 885.141 206.826 877.93C218.134 872.784 230.84 866.518 242.266 862.185C246.453 863.756 247.697 864.303 251.485 866.458C258.702 870.564 265.853 878.088 274.249 878.547C287.843 879.291 302.643 863.216 312.313 854.352Z"/><path fill="#202020" transform="matrix(0.175781 0 0 0.175781 -6.10352e-05 0)" d="M858.316 355.816C866.964 364.176 898.65 425.328 904.513 439.298C899.434 446.646 894.465 456.912 890.266 465.07C883.561 462.78 876.843 460.528 870.113 458.314C852.414 451.619 833.795 445.682 815.779 439.746C819.383 431.275 825.118 420.915 829.375 412.494L858.316 355.816Z"/><path fill="#202020" transform="matrix(0.175781 0 0 0.175781 -6.10352e-05 0)" d="M250.37 571.967C251.923 573.955 256.438 583.185 257.959 585.967C260.944 591.426 263.583 595.412 267.047 600.537C263.62 609.387 259.466 623.523 254.478 630.959C243.841 646.815 226.387 660.034 215.609 675.931C215.421 681.366 214.511 696.717 217.185 700.698C219.685 701.692 225.931 701.194 227.051 701.818C237.054 707.398 239.587 708.194 250.705 709.133C248.901 712.358 247 715.528 245.007 718.639C237.192 707.357 229.973 711.818 218.266 709.984C211.84 708.977 207.609 707.223 201.679 704.663C203.112 696.549 208.103 669.182 204.83 662.395L203.987 662.146C202.392 663.463 202.9 662.873 202.252 665.125C200.272 675.521 199.518 690.285 198.532 700.161C196.218 723.332 243.787 709.02 240.073 720.225C235.937 723.804 228.716 723.53 223.448 723.83C209.374 724.631 202.067 720.473 192.069 711.235C191.575 708.541 189.432 698.22 189.31 696.35C186.712 656.578 228.28 600.839 250.37 571.967Z"/><path fill="#202020" transform="matrix(0.175781 0 0 0.175781 -6.10352e-05 0)" d="M480.619 650.344C485.574 653.613 494.33 661.271 499.331 665.264L533.549 692.2C571.339 721.894 604.642 747.285 645.085 773.792C642.356 775.077 639.475 776.292 636.702 777.506C624.727 782.575 612.905 782.949 600.137 782.988C590.116 775.167 577.825 762.85 567.767 753.92C541.68 730.755 513.915 706.946 492.302 679.493C487.136 672.931 481.185 662.595 476.897 655.395L480.619 650.344Z"/><path fill="#202020" transform="matrix(0.175781 0 0 0.175781 -6.10352e-05 0)" d="M242.357 879.516C259.163 879.161 242.116 897.873 238.122 902.834C224.418 919.858 233.816 922.688 250.851 921.876C278.285 920.569 302.756 911.94 328.321 902.854C329.606 917.534 329.768 925.82 328.936 940.478C314.285 940.415 297.91 941.788 282.817 941.974C263.262 941.975 243.708 941.809 224.156 941.476C219.324 933.556 214.112 925.874 208.538 918.457C202.354 918.369 197.743 919.303 191.859 920.946C186.298 922.499 166.929 928.443 163.568 921.409C163.453 917.677 166.852 915.175 169.858 913.648C181.598 907.684 193.854 902.851 205.523 896.647C217.423 890.321 229.823 884.394 242.357 879.516Z"/><path fill="#202020" transform="matrix(0.175781 0 0 0.175781 -6.10352e-05 0)" d="M724.926 818.874C737.357 822.736 746.862 825.819 759.532 828.318C754.111 834.37 748.428 840.181 742.497 845.733C738.746 844.199 728.657 839.295 725.192 842.152L725.128 843.491C727.894 850.104 739.703 856.849 745.989 859.81C760.213 855.207 769.122 839.959 780.713 830.868C794.796 831.302 805.418 830.96 819.417 828.526C815.293 832.509 805.017 839.464 799.958 843.018C790.662 849.417 781.533 856.054 772.578 862.922C758.656 873.677 748.3 881.036 733.398 889.99C728.753 882.81 724.368 876.177 718.205 870.199C701.488 876.847 695.677 889.103 680.949 899.902C673.847 896.977 669.416 894.899 662.859 891.121C676.999 873.998 691.779 857.503 706.102 840.543C712.301 833.203 718.443 825.964 724.926 818.874Z"/><path fill="#202020" transform="matrix(0.175781 0 0 0.175781 -6.10352e-05 0)" d="M859.571 822.059C863.482 823.875 867.823 826.305 871.675 828.346C864.799 834.293 854.924 841.078 847.459 846.492L807.034 875.764C796.909 883.091 786.431 890.483 776.473 897.996C766.79 905.301 757.788 912.741 747.7 919.652C706.22 948.108 660.453 969.741 612.135 983.729C606.8 985.086 603.098 977.14 600.507 973.157C678.528 950.933 726.904 919.503 791.025 871.584L828.977 843.4C839.053 835.934 848.721 828.376 859.571 822.059Z"/><path fill="#202020" transform="matrix(0.175781 0 0 0.175781 -6.10352e-05 0)" d="M771.638 270.754C778.386 272.37 804.121 281.112 808.726 284.46C817.333 290.719 856.059 344.602 854.449 351.699C853 352.627 853.797 352.314 851.885 352.413C823.925 345.141 795.855 338.299 767.685 331.89C768.267 325.937 768.429 317.84 768.759 311.635C769.403 297.988 770.364 284.357 771.638 270.754Z"/><path fill="#202020" transform="matrix(0.175781 0 0 0.175781 -6.10352e-05 0)" d="M55.3922 948.425C68.9981 953.745 79.6763 958.381 94.73 959.95C134.104 964.055 173.557 958.128 212.923 957.59C239.177 957.231 265.859 959.751 292.126 960.526C305.209 960.912 317.25 959.739 330.226 959.394C329.962 962.116 329.167 966.04 328.673 968.844C327.528 969.832 326.163 970.38 324.755 970.893C305.098 978.063 246.298 974.502 223.383 973.595L167.486 971.444C127.31 970.124 93.8184 974.434 56.1152 956.917C55.6199 953.751 55.5327 951.617 55.3922 948.425Z"/><path fill="#202020" transform="matrix(0.175781 0 0 0.175781 -6.10352e-05 0)" d="M949.358 703.865C953.112 705.707 958.713 707.879 962.687 709.568C961.588 732.472 952.164 782.554 941.153 802.767C934.67 799.953 927.059 797.276 920.374 794.772L897.766 786.648C902.274 777.872 911.384 764.48 916.957 755.692C927.892 738.501 938.693 721.225 949.358 703.865Z"/><path fill="#202020" transform="matrix(0.175781 0 0 0.175781 -6.10352e-05 0)" d="M145.544 882.991C147.293 884.27 148.666 886.373 150.006 888.143C147.991 889.83 146.114 891.674 144.393 893.659C132.486 907.661 131.737 925.881 133.108 943.261C113.815 944.503 92.9479 941.781 74.2537 937.271C72.7153 936.779 71.1853 936.261 69.6644 935.718C61.8502 932.86 61.1809 928.88 64.0291 921.308C72.8376 897.888 99.8673 898.305 120.287 893.131C128.553 891.037 137.694 886.588 145.544 882.991Z"/><path fill="#202020" transform="matrix(0.175781 0 0 0.175781 -6.10352e-05 0)" d="M603.794 127.115C604.505 126.96 605.607 126.866 606.301 127.181C622.637 134.606 638.384 144.399 656.533 146.726C660.66 147.255 664.318 147.466 668.446 147.537C667.34 152.957 666.309 158.392 665.352 163.84C655.392 162.598 644.401 164.48 634.278 162.79C621.965 160.735 609.913 155.853 597.894 153.214C587.874 151.015 574.213 150.759 563.748 150.201C555.75 150.133 546.703 147.015 538.883 147.096C532.16 147.166 521.767 151.503 515.368 153.908C500.325 159.561 485.559 166.254 471.13 173.267C452.241 182.05 433.623 191.403 415.3 201.313C426.559 191.096 450.261 174.235 463.566 167.019C470.433 163.294 495.321 156.477 504.148 153.766C537.017 143.672 570.125 134.206 603.794 127.115Z"/><path fill="#202020" transform="matrix(0.175781 0 0 0.175781 -6.10352e-05 0)" d="M290.011 778.795C294.927 781.213 304.301 788.574 309.714 792.038C330.838 805.556 346.004 813.235 369.89 820.367C366.629 826.236 359.189 838.953 354.642 844.386C354.185 844.531 353.728 844.676 353.271 844.821C328.197 841.523 292.805 823.058 272.429 808.165C276.739 798.468 284.09 787.586 290.011 778.795Z"/><path fill="#202020" transform="matrix(0.175781 0 0 0.175781 -6.10352e-05 0)" d="M865.588 305.434C871.125 307.923 916.256 388.479 921.577 397.791C914.478 402.789 907.536 408.006 900.76 413.434L900.002 413.496C897.422 411.18 893.748 402.973 891.936 399.535C877.626 372.377 861.295 346.907 844.903 321.006C851.57 315.65 858.692 310.521 865.588 305.434Z"/><path fill="#202020" transform="matrix(0.175781 0 0 0.175781 -6.10352e-05 0)" d="M257.114 804.717C259.991 806.385 269.391 814.292 273.245 816.98C286.679 826.35 298.106 831.474 313.089 837.352C308.293 851.751 303.533 855.664 292.065 865.126C273.931 880.188 267.169 870.764 250.881 859.529C251.33 845.243 251.435 839.266 244.902 826.733C249.307 819.513 252.967 812.083 257.114 804.717Z"/><path fill="#202020" transform="matrix(0.175781 0 0 0.175781 -6.10352e-05 0)" d="M681.095 198.045C681.238 198.149 685.776 203.007 686.083 203.342C692.649 210.52 696.323 212.446 705.249 215.768C677.092 225.178 643.419 243.701 622.54 264.897C618.313 265.208 614.092 265.605 609.881 266.09C602.68 267.124 595.226 268.187 588.138 269.763C609.42 242.091 650.111 213.655 681.095 198.045Z"/><path fill="#202020" transform="matrix(0.175781 0 0 0.175781 -6.10352e-05 0)" d="M634.463 893.892C650.502 901.3 660.959 911.849 671.39 925.824C657.556 932.613 641.815 939.297 627.654 945.038C618.207 948.438 609.604 951.533 599.875 953.99C600.42 920.27 609.948 914.769 634.463 893.892Z"/><path fill="#202020" transform="matrix(0.175781 0 0 0.175781 -6.10352e-05 0)" d="M243.214 735.699C245.59 737.043 258.698 750.972 262.207 754.334C270.27 762.21 278.8 769.594 287.75 776.445C283.211 785.969 275.984 794.933 270.473 806.749C258.342 798.349 236.553 774.796 225.764 763.541C231.782 754.388 237.601 745.106 243.214 735.699Z"/><path fill="#202020" transform="matrix(0.175781 0 0 0.175781 -6.10352e-05 0)" d="M57.038 936.206C84.6891 951.508 117.871 948.971 148.458 947.761C165.38 947.008 182.311 946.476 199.246 946.164C224.934 945.765 250.679 946.924 276.35 947.023C294.032 946.997 311.709 946.487 329.363 945.495C329.682 949.506 330.492 951.072 327.018 953.366C309.301 955.315 289.81 954.591 272.01 953.87C253.248 952.978 234.473 952.374 215.693 952.058C168.184 951.73 118.972 963.21 72.0716 949.675C67.4899 948.212 62.5161 947.168 58.0868 945.317C53.2545 943.297 55.4027 939.35 57.038 936.206Z"/><path fill="#202020" transform="matrix(0.175781 0 0 0.175781 -6.10352e-05 0)" d="M850.725 816.439C852.33 816.897 851.761 816.435 852.583 817.746C851.18 821.019 817.55 844.622 812.786 848.067C800.984 856.57 789.25 865.166 777.584 873.854C768.941 880.358 760.068 887.484 751.235 893.634C736.546 903.859 720.785 913.254 705.281 922.215C670.19 942.497 637.538 958.259 597.943 967.222C596.873 965.44 595.795 963.157 594.836 961.27C669.704 940.657 724.15 906.206 785.705 860.407C799.466 850.333 813.343 840.419 827.333 830.665C834.441 825.721 843.086 821.519 850.725 816.439Z"/><path fill="#202020" transform="matrix(0.175781 0 0 0.175781 -6.10352e-05 0)" d="M715.556 873.348C720.757 875.733 727.81 886.798 731.093 891.551C715.937 902.29 691.325 915.219 674.6 924.072C665.757 912.027 661.326 907.563 649.427 898.847C645.364 896.147 641.119 893.752 636.899 891.303C641.071 887.178 645.201 882.471 649.169 878.111C654.498 879.264 659.69 881.495 664.731 883.566C659.891 890.775 658.452 893.096 667.212 897.813C672.033 900.409 676.627 902.026 681.857 903.608C694.878 895.757 704.101 883.473 715.556 873.348Z"/><path fill="#202020" transform="matrix(0.175781 0 0 0.175781 -6.10352e-05 0)" d="M646.892 775.959C653.344 778.999 666.198 787.593 672.656 791.696C661.3 800.886 652.129 809.237 641.411 819.123L636.166 814.529C625.401 805.313 614.738 795.981 604.177 786.533C623.755 785.438 629.522 785.157 646.892 775.959Z"/><path fill="#202020" transform="matrix(0.175781 0 0 0.175781 -6.10352e-05 0)" d="M679.298 144.304C685.915 145.009 703.157 150.825 709.107 154.131C730.505 166.017 738.722 188.496 745.232 210.629C740.741 208.827 736.509 206.003 732.442 203.741C712.407 192.596 701.751 175.429 689.309 157.139C686.305 152.723 681.966 149.179 679.298 144.304Z"/><path fill="#202020" transform="matrix(0.175781 0 0 0.175781 -6.10352e-05 0)" d="M677.496 146.664C684.983 151.395 702.368 183.209 710.254 190.964C714.035 195.391 718.164 199.269 722.849 202.722C724.872 204.214 730.495 206.512 730.496 208.991L729.05 209.882C690.502 221.439 673.379 177.912 677.496 146.664Z"/><path fill="#202020" transform="matrix(0.175781 0 0 0.175781 -6.10352e-05 0)" d="M279.763 612.136C290.392 617.224 291.058 618.623 302.995 616.113C299.027 624.842 292.058 636.475 287.249 645.213L258.066 698.306L254.699 703.797C249.984 702.489 242.118 701.5 236.838 700.364C239.779 700.062 246.61 699.632 248.957 697.941C257.583 691.726 258.248 676.776 261.747 667.183C265.46 657.007 272.353 652.852 275.132 642.63C277.882 632.513 277.782 622.313 279.763 612.136Z"/><path fill="#202020" transform="matrix(0.175781 0 0 0.175781 -6.10352e-05 0)" d="M323.295 885.909L324.433 886.016C326.385 888.915 327.189 895.817 327.769 899.506C303.237 907.98 262.301 922.655 236.602 917.606C235.237 917.14 235.816 917.513 234.98 916.275C234.712 911.735 239.546 906.053 242.27 902.342C246.612 904.003 251.994 906.004 256.708 906.075C277.724 906.389 304.118 893.844 323.295 885.909Z"/><path fill="#202020" transform="matrix(0.175781 0 0 0.175781 -6.10352e-05 0)" d="M702.75 139.712C706.879 139.425 711.028 139.795 715.041 140.807C728.21 144.115 738.079 153.943 744.62 165.342C754.845 183.162 753.845 191.974 748.979 210.712C747.65 207.693 745.952 202.191 744.83 198.914C742.928 192.691 740.568 186.619 737.769 180.746C729.02 162.142 719.568 154.077 699.721 147.683C694.345 145.951 688.068 144.56 682.838 142.661L682.269 142.449C689.198 141.014 695.735 140.281 702.75 139.712Z"/><path fill="#202020" transform="matrix(0.175781 0 0 0.175781 -6.10352e-05 0)" d="M270.506 604.275C276.325 609.463 269.292 640.633 265.688 647.526C263.048 652.576 258.148 657.473 256.082 663.485C252.964 672.555 252.148 682.669 247.505 691.092C244.905 695.778 241.968 694.264 238.445 691.835C238.43 678.741 247.179 667.653 237.531 656.114C259.187 636.801 261.61 629.985 270.506 604.275Z"/><path fill="#202020" transform="matrix(0.175781 0 0 0.175781 -6.10352e-05 0)" d="M464.974 182.97C466.565 184.38 471.428 200.938 472.469 204.206C448.269 210.893 430.864 215.045 406.078 218.031C403.583 218.329 401.138 218.491 398.634 218.675C422.119 203.543 439.443 193.519 464.974 182.97Z"/><path fill="#202020" transform="matrix(0.175781 0 0 0.175781 -6.10352e-05 0)" d="M710.858 125.667C718.915 124.521 728.213 126.906 734.786 131.662C751.536 143.781 755.603 165.806 758.764 184.785C755.114 177.22 751.169 169.801 746.938 162.545C727.805 132.16 709.777 136.197 678.322 140.334C691.032 131.518 695.521 128.121 710.858 125.667Z"/><path fill="#202020" transform="matrix(0.175781 0 0 0.175781 -6.10352e-05 0)" d="M234.701 829.902C237.81 830.109 238.564 830.508 241.396 831.892C247.411 839.493 246.593 848.919 246.476 858.073C236.976 856.877 231.096 860.572 222.83 864.605L221.592 864.366C218.105 860.468 213.505 850.33 211.055 845.35C218.621 839.969 226.842 834.901 234.701 829.902Z"/><path fill="#202020" transform="matrix(0.175781 0 0 0.175781 -6.10352e-05 0)" d="M641.679 121.703C642.352 121.633 645.247 121.349 645.767 121.365C654.221 121.622 666.736 135.034 672.584 140.773L668.85 143.678C659.437 143.57 656.068 143.322 646.998 141.214C632.409 136.895 624.479 132.991 611.529 125.361C621.544 123.868 631.597 122.649 641.679 121.703Z"/><path fill="#202020" transform="matrix(0.175781 0 0 0.175781 -6.10352e-05 0)" d="M657.125 167.06C659.503 167.074 662.701 167.417 665.133 167.606C665.396 170.209 665.431 173.145 665.528 175.782C646.15 188.224 634.778 189.434 612.402 187.295C609.92 186.817 606.997 185.891 604.529 185.188C604.479 182.264 604.111 178.683 603.878 175.706C628.477 179.116 635.253 178.726 657.125 167.06Z"/><path fill="#202020" transform="matrix(0.175781 0 0 0.175781 -6.10352e-05 0)" d="M822.695 269.043C826.086 269.99 849.01 303.744 851.364 308.359C848.036 310.789 844.794 313.416 841.564 315.982C838.369 312.193 833.553 305.148 830.459 300.963C824.158 292.482 817.764 284.07 811.278 275.729C815.053 273.613 818.945 271.243 822.695 269.043Z"/><path fill="#202020" transform="matrix(0.175781 0 0 0.175781 -6.10352e-05 0)" d="M665.116 179.466L665.549 179.518C666.652 180.7 668.295 190.329 668.743 192.52C645.632 201.442 632.311 203.653 607.88 198.153C602.846 196.325 604.299 192.871 604.728 188.181C605.511 188.421 606.303 188.635 607.101 188.821C630.687 194.512 644.754 191.93 665.116 179.466Z"/><path fill="#202020" transform="matrix(0.175781 0 0 0.175781 -6.10352e-05 0)" d="M914.534 410.508C917.863 413.667 927.178 431.685 930.177 436.862C925.876 440.684 921.514 444.437 917.094 448.12C916.761 448.386 916.383 448.466 915.947 448.627C913.36 446.207 904.326 423.396 902.492 419.007C906.656 415.864 910.22 413.387 914.534 410.508Z"/><path fill="#202020" transform="matrix(0.175781 0 0 0.175781 -6.10352e-05 0)" d="M523.053 155.42C526.117 155.644 539.238 162.608 543.861 164.162C551.012 166.566 556.142 167.785 563.5 169.491L562.033 175.667C557.72 175.471 553.919 175.079 549.619 174.613C536.851 173.817 518.672 169.614 507.612 163.573C512.03 160.789 518.287 157.833 523.053 155.42Z"/><path fill="#202020" transform="matrix(0.175781 0 0 0.175781 -6.10352e-05 0)" d="M663.824 198.141L664.165 198.309C662.928 200.423 639.929 214.395 636.488 216.469C621.837 213.838 620.793 215.876 606.553 207.884L600.942 204.497L603.292 198.94C628.11 206.883 639.391 205.057 663.824 198.141Z"/><path fill="#202020" transform="matrix(0.175781 0 0 0.175781 -6.10352e-05 0)" d="M591.656 156.032C600.985 156.111 616.571 162.203 626.218 164.65C635.972 167.124 639.982 167.467 649.888 168.202L645.702 170.014C628.857 176.169 620.481 174.949 603.301 172.311C599.97 164.144 598.7 161.541 591.656 156.032Z"/><path fill="#202020" transform="matrix(0.175781 0 0 0.175781 -6.10352e-05 0)" d="M943.19 556.807C945.582 559.381 951.434 586.837 952.642 592.037C949.276 591.056 944.505 589.087 941.122 587.808L927.845 582.846C931.763 574.541 938.126 564.46 943.19 556.807Z"/><path fill="#202020" transform="matrix(0.175781 0 0 0.175781 -6.10352e-05 0)" d="M762.771 828.993L776.876 830.607C768.055 839.774 757.179 850.232 746.593 857.156L742.376 855.04C736.58 851.652 733.301 848.528 728.401 844.029C733.829 845.883 738.432 846.998 743.958 848.221C750.327 841.909 756.599 835.499 762.771 828.993Z"/><path fill="#202020" transform="matrix(0.175781 0 0 0.175781 -6.10352e-05 0)" d="M536.077 150.087C541.49 149.827 567.142 153.474 574.713 154.162C570.334 158.063 568.701 160.022 565.403 164.851C564.828 165.671 564.955 165.422 564.014 165.995C554.922 166.626 536.19 158.436 528.685 153.63C531.14 152.431 533.604 151.25 536.077 150.087Z"/><path fill="#202020" transform="matrix(0.175781 0 0 0.175781 -6.10352e-05 0)" d="M234.794 662.381C239.462 672.666 227.228 681.889 235.584 697.44L228.725 696.021C226.874 695.632 223.954 695.391 221.998 695.168C222.071 689.215 222.237 683.263 222.496 677.315C226.012 672.304 230.75 667.023 234.794 662.381Z"/><path fill="#202020" transform="matrix(0.175781 0 0 0.175781 -6.10352e-05 0)" d="M206.483 848.118C210.1 852.482 214.364 861.676 216.999 866.994C213.893 868.634 209.033 870.543 205.696 871.97L204.376 871.752C201.51 868.555 197.281 859.512 195.213 855.323C198.934 852.866 202.691 850.464 206.483 848.118Z"/><path fill="#202020" transform="matrix(0.175781 0 0 0.175781 -6.10352e-05 0)" d="M906.778 448.42C909.538 451.207 917.099 471.791 918.994 476.657L911.899 473.492L896.275 467.216C898.993 461.524 903.545 454.049 906.778 448.42Z"/><path fill="#202020" transform="matrix(0.175781 0 0 0.175781 -6.10352e-05 0)" d="M679.924 833.303C686.887 834.223 693.09 839.738 698.163 844.119C695.656 846.778 693.18 849.466 690.735 852.183C690.446 852.49 689.952 852.664 689.525 852.876C687.454 852.359 676.525 845.433 673.221 843.818C675.467 840.489 677.753 836.719 679.924 833.303Z"/><path fill="#202020" transform="matrix(0.175781 0 0 0.175781 -6.10352e-05 0)" d="M696.439 806.056C704.314 809.604 711.864 813.385 719.85 816.843C717.49 819.38 715.264 822.056 713.018 824.696C712.765 824.921 712.133 825.17 711.788 825.331C709.123 824.635 702.38 820.026 699.413 818.496C696.47 816.978 694.398 816.013 691.226 814.669C692.987 811.831 694.711 808.919 696.439 806.056Z"/><path fill="#202020" transform="matrix(0.175781 0 0 0.175781 -6.10352e-05 0)" d="M688.723 819.801C697.88 822.949 700.783 824.432 708.363 830.58C706.273 833.5 703.751 836.586 701.515 839.438C694.908 834.083 690.045 831.787 682.387 828.525L688.723 819.801Z"/><path fill="#202020" transform="matrix(0.175781 0 0 0.175781 -6.10352e-05 0)" d="M670.402 848.593C677.603 850.426 680.614 853.042 685.372 858.245C682.978 861.591 680.952 864.064 678.082 866.972C673.14 863.298 668.399 861.376 662.629 859.475L670.402 848.593Z"/><path fill="#202020" transform="matrix(0.175781 0 0 0.175781 -6.10352e-05 0)" d="M659.563 864.37C666.134 865.134 669.942 867.432 675.279 870.922C673.168 873.866 670.013 877.338 667.599 880.146C662.104 878.325 658.061 876.17 651.973 874.554C654.53 871.211 657.049 867.753 659.563 864.37Z"/><path fill="#202020" transform="matrix(0.175781 0 0 0.175781 -6.10352e-05 0)" d="M190.407 858.128C193.512 860.899 197.765 870.86 199.646 874.965L190.48 879.025C187.301 876.902 182.989 867.895 181.263 864.42C184.334 862.357 187.382 860.259 190.407 858.128Z"/><path fill="#202020" transform="matrix(0.175781 0 0 0.175781 -6.10352e-05 0)" d="M672.206 149.391C673.963 151.567 672.592 169.801 673.521 173.885C674.879 179.855 678.015 185.993 678.299 192.033C678.338 192.865 676.483 193.686 675.719 194.171C674.62 194.16 674.633 194.096 673.539 193.849C667.036 188.34 669.634 157.874 672.206 149.391Z"/><path fill="#202020" transform="matrix(0.175781 0 0 0.175781 -6.10352e-05 0)" d="M175.919 867.419C178.772 870.105 182.744 877.907 184.782 881.626C181.641 882.993 178.452 884.55 175.346 886.018C173.363 885.187 168.19 875.263 166.827 872.763L175.919 867.419Z"/><path fill="#202020" transform="matrix(0.175781 0 0 0.175781 -6.10352e-05 0)" d="M161.059 875.91L161.851 876.035C164.486 878.327 167.829 885.074 169.596 888.435C166.494 889.689 163.68 891.076 160.672 892.532C158.936 891.06 153.306 882.845 151.691 880.541C154.695 878.973 158.001 877.42 161.059 875.91Z"/><path fill="#202020" transform="matrix(0.175781 0 0 0.175781 -6.10352e-05 0)" d="M654.937 120.548C670.747 119.818 674.859 120.809 674.97 137.595C673.412 136.56 667.732 131.167 666.055 129.608C661.978 125.818 659.369 123.789 654.937 120.548Z"/><path fill="#202020" transform="matrix(0.175781 0 0 0.175781 -6.10352e-05 0)" d="M962.452 683.347C964.393 685.222 963.54 699.317 963.483 702.601L956.623 699.687C955.321 699.136 955.083 698.964 953.858 698.263C954.334 695.386 960.587 686.236 962.452 683.347Z"/><path fill="#202020" transform="matrix(0.175781 0 0 0.175781 -6.10352e-05 0)" d="M534.154 177.139C539.59 177.762 556.091 179.355 560.384 181.022C561.335 182.069 561.323 183.909 561.523 185.432C553.292 185.445 540.872 181.842 534.154 177.139Z"/><path fill="#202020" transform="matrix(0.175781 0 0 0.175781 -6.10352e-05 0)" d="M652.986 87.1061L659.515 86.9858C660.696 90.9351 661.582 95.0317 662.511 99.0537L655.247 98.9773L652.986 87.1061Z"/><path fill="#202020" transform="matrix(0.175781 0 0 0.175781 -6.10352e-05 0)" d="M662.257 86.1699C667.826 87.8892 668.511 94.2441 669.838 99.2601C668.784 99.1135 668.163 98.9647 667.119 98.7368C663.524 95.9108 663.095 90.5855 662.257 86.1699Z"/><path fill="#202020" transform="matrix(0.175781 0 0 0.175781 -6.10352e-05 0)" d="M215.721 729.531L225.286 729.23C225.517 731.822 225.509 734.706 225.566 737.328C222.075 735.404 218.591 732.27 215.721 729.531Z"/><path fill="#202020" transform="matrix(0.175781 0 0 0.175781 -6.10352e-05 0)" d="M616.267 216.579C619.654 217.122 630.994 218.248 632.045 221.198C625.649 222.901 621.152 220.688 616.267 216.579Z"/><path fill="#202020" transform="matrix(0.175781 0 0 0.175781 -6.10352e-05 0)" d="M669.43 110.031C672.2 110.975 673.601 112.073 673.017 115.108C670.633 115.185 670.311 115.473 668.809 113.589C668.604 111.831 668.814 111.671 669.43 110.031Z"/></svg>