<?xml version="1.0" encoding="utf-8" ?><svg xmlns="http://www.w3.org/2000/svg" xmlns:xlink="http://www.w3.org/1999/xlink" width="180" height="180" viewBox="0 0 180 180"><path fill="white" transform="scale(0.175781 0.175781)" d="M0 0L1024 0L1024 1024L0 1024L0 0Z"/><path fill="#807F7F" transform="scale(0.175781 0.175781)" d="M453.623 166.821C452.673 140.414 454.299 117.409 466.199 93.4886C495.037 35.5223 597.647 14.2186 643.594 62.9517C658.22 78.4647 674.579 98.0461 677.765 119.714C676.782 122.291 676.182 123.875 674.857 126.348C675.498 130.363 675.719 132.801 675.764 136.911C685.446 127.687 699.353 122.657 712.647 122.973C723.963 123.303 734.667 128.185 742.336 136.513C754.689 149.692 760.126 173.587 761.346 191.519C761.432 192.786 761.075 193.793 760.417 194.873C758.193 196.264 757.309 195.722 754.837 195.04C754.417 200.552 752.007 222.069 745.289 223.365C744.078 222.884 742.881 222.368 741.7 221.818C741.584 224.08 746.031 232.863 747.264 235.293C765.866 237.196 791.842 261.55 804.681 274.919C807.769 273.014 819.928 265.065 821.612 266.454C830.158 273.509 847.113 300.117 853.073 308.833C856.953 306.011 859.748 303.65 864.39 302.282C872.834 309.446 890.361 341.728 897.177 353.075C903.126 362.978 921.994 393.817 924.584 403.889C921.982 407.569 920.029 408.652 916.299 410.996C920.916 418.531 930.447 433.424 932.927 441.631L933.153 442.365C933.195 442.512 933.237 442.66 933.278 442.808C929.405 448.132 919.452 455.498 913.927 459.779C923.57 486.702 933.358 513.919 941.295 541.357C968.059 633.877 980.472 735.064 937.755 824.943C934.476 831.843 930.02 841.043 925.01 846.648C905.604 846.486 893.662 844.678 875.408 837.114C839.063 864.923 801.348 891.098 764.909 918.804C757.888 924.142 750.54 929.47 743.238 934.406C709.194 957.108 672.432 975.441 633.816 988.974C625.995 991.642 602.397 1001.86 597.947 992.303C594.643 985.211 585.638 975.162 585.252 967.177C585.303 964.513 588.552 962.437 590.4 961.098C586.827 928.158 601.379 918.689 623.255 898.468C629.928 892.303 636.097 885.614 641.705 878.467C654.412 862.425 664.861 844.154 675.675 826.839C679.422 820.838 683.594 813.604 687.714 807.948L675.554 800.383C665.168 809.82 648.853 824.73 637.994 833.184C630.812 828.1 622.335 820.16 615.584 814.153L580.916 783.058L545.326 751.068C518.456 727.101 485.724 698.118 469.83 665.073C443.348 712.164 416.323 756.541 388.493 802.645C380.819 815.608 372.945 828.451 364.874 841.17C362.232 845.36 356.654 854.69 353.467 857.988C342.943 856.025 327.059 850.822 316.786 847.366C316.208 851.046 315.667 853.292 314.697 856.905C326.314 876.93 331.476 902.375 332.038 925.452C332.257 934.465 331.629 943.44 331.663 952.439C331.691 959.782 333.55 968.487 331.628 975.63C330.831 978.593 329.327 980.174 326.645 981.601C306.029 992.572 188.657 985.022 157.839 983.996L121.136 983.026C101.888 982.594 84.1135 981.957 65.7538 975.263C61.5849 973.743 47.3013 969.257 46.3286 964.782C43.712 952.746 42.433 942.792 52.2903 934.541C56.8996 896.233 94.4751 900.207 121.444 890.66C159.013 877.361 191.676 851.916 225.963 832.414C227.613 831.475 233.033 830.382 235.396 830.375C238.764 825.307 245.649 810.832 248.567 805.934C238.187 795.917 222.964 781.452 213.977 770.37C218.671 762.393 223.544 754.91 228.516 747.127C230.834 743.5 235.413 736.673 236.982 732.89C233.755 733.624 230.06 734.596 226.815 734.827C227.283 739.167 227.956 742.88 225.276 746.587C223.583 748.928 217.832 748.276 216.19 746.57C206.175 736.168 193.115 730.39 183.137 720.553C182.236 719.664 180.957 711.647 180.576 709.955C176.147 693.627 179.984 679.585 186.125 663.774C197.885 633.494 222.866 593.879 244.778 570.096C243.836 564.959 243.308 562.452 243.528 557.166C246.387 551.875 250.656 548.28 254.708 543.916C279.469 517.252 300.71 488.57 330.502 466.962C332.757 470.197 332.762 469.615 336.99 469.409C338.196 468.983 365.795 469.354 369.013 469.362C373.07 460.741 377 452.059 380.8 443.321C382.059 440.239 383.517 436.343 385.542 433.768C389.696 431.605 396.686 426.959 400.959 424.321L431.01 405.644C431.64 403.902 431.049 372.545 431.032 368.573C442.139 368.684 453.247 368.669 464.354 368.527C464.533 373.348 464.232 378.015 464.486 382.974C473.497 376.465 486.259 368.607 492.316 359.334C495.87 353.894 497.919 345.701 502.531 340.545C511.682 330.75 520.809 321.664 529.575 311.46C523.249 308.271 522.673 306.397 518.735 300.412C506.502 295.612 507.362 294.426 505.945 282.971C504.611 272.179 483.565 276.11 480.425 265.705C477.172 255.136 493.43 247.12 487.962 233.902C484.033 224.406 475.882 221.672 470.887 213.611C458.152 217.452 396.285 233.026 387.079 228.308C386.04 227.776 385.356 227.173 385.149 225.969C384.487 222.118 390.28 216.31 392.774 213.755C410.522 195.581 432.284 180.427 453.623 166.821Z"/><path fill="#252525" transform="scale(0.175781 0.175781)" d="M453.623 166.821C452.673 140.414 454.299 117.409 466.199 93.4886C495.037 35.5223 597.647 14.2186 643.594 62.9517C658.22 78.4647 674.579 98.0461 677.765 119.714C676.782 122.291 676.182 123.875 674.857 126.348C675.498 130.363 675.719 132.801 675.764 136.911C685.446 127.687 699.353 122.657 712.647 122.973C723.963 123.303 734.667 128.185 742.336 136.513C754.689 149.692 760.126 173.587 761.346 191.519C761.432 192.786 761.075 193.793 760.417 194.873C758.193 196.264 757.309 195.722 754.837 195.04C754.417 200.552 752.007 222.069 745.289 223.365C744.078 222.884 742.881 222.368 741.7 221.818C741.584 224.08 746.031 232.863 747.264 235.293C765.866 237.196 791.842 261.55 804.681 274.919C807.769 273.014 819.928 265.065 821.612 266.454C830.158 273.509 847.113 300.117 853.073 308.833C856.953 306.011 859.748 303.65 864.39 302.282C872.834 309.446 890.361 341.728 897.177 353.075C903.126 362.978 921.994 393.817 924.584 403.889C921.982 407.569 920.029 408.652 916.299 410.996C920.916 418.531 930.447 433.424 932.927 441.631L933.153 442.365C933.195 442.512 933.237 442.66 933.278 442.808C929.405 448.132 919.452 455.498 913.927 459.779C923.57 486.702 933.358 513.919 941.295 541.357C968.059 633.877 980.472 735.064 937.755 824.943C934.476 831.843 930.02 841.043 925.01 846.648C905.604 846.486 893.662 844.678 875.408 837.114C839.063 864.923 801.348 891.098 764.909 918.804C757.888 924.142 750.54 929.47 743.238 934.406C709.194 957.108 672.432 975.441 633.816 988.974C625.995 991.642 602.397 1001.86 597.947 992.303C594.643 985.211 585.638 975.162 585.252 967.177C585.303 964.513 588.552 962.437 590.4 961.098C586.827 928.158 601.379 918.689 623.255 898.468C629.928 892.303 636.097 885.614 641.705 878.467C654.412 862.425 664.861 844.154 675.675 826.839C679.422 820.838 683.594 813.604 687.714 807.948L675.554 800.383C665.168 809.82 648.853 824.73 637.994 833.184C630.812 828.1 622.335 820.16 615.584 814.153L580.916 783.058L545.326 751.068C518.456 727.101 485.724 698.118 469.83 665.073C443.348 712.164 416.323 756.541 388.493 802.645C380.819 815.608 372.945 828.451 364.874 841.17C362.232 845.36 356.654 854.69 353.467 857.988C342.943 856.025 327.059 850.822 316.786 847.366C316.208 851.046 315.667 853.292 314.697 856.905C326.314 876.93 331.476 902.375 332.038 925.452C332.257 934.465 331.629 943.44 331.663 952.439C331.691 959.782 333.55 968.487 331.628 975.63C330.831 978.593 329.327 980.174 326.645 981.601C306.029 992.572 188.657 985.022 157.839 983.996L121.136 983.026C101.888 982.594 84.1135 981.957 65.7538 975.263C61.5849 973.743 47.3013 969.257 46.3286 964.782C43.712 952.746 42.433 942.792 52.2903 934.541C56.8996 896.233 94.4751 900.207 121.444 890.66C159.013 877.361 191.676 851.916 225.963 832.414C227.613 831.475 233.033 830.382 235.396 830.375C238.764 825.307 245.649 810.832 248.567 805.934C238.187 795.917 222.964 781.452 213.977 770.37C218.671 762.393 223.544 754.91 228.516 747.127C230.834 743.5 235.413 736.673 236.982 732.89C233.755 733.624 230.06 734.596 226.815 734.827C227.283 739.167 227.956 742.88 225.276 746.587C223.583 748.928 217.832 748.276 216.19 746.57C206.175 736.168 193.115 730.39 183.137 720.553C182.236 719.664 180.957 711.647 180.576 709.955C176.147 693.627 179.984 679.585 186.125 663.774C197.885 633.494 222.866 593.879 244.778 570.096C243.836 564.959 243.308 562.452 243.528 557.166C246.387 551.875 250.656 548.28 254.708 543.916C279.469 517.252 300.71 488.57 330.502 466.962C332.757 470.197 332.762 469.615 336.99 469.409C336.563 470.744 315.316 487.501 312.614 490.084C297.127 504.886 283.742 521.137 269.763 537.313C263.535 544.519 255.072 551.809 249.316 559.104C252.099 579.722 262.17 597.851 278.312 611.004C286.372 617.571 293.876 617.337 302.976 613.448C308.775 602.647 314.445 591.777 319.984 580.84C321.868 581.492 323.757 582.13 325.65 582.754C324.645 586.952 313.128 608.543 310.303 614.011C294.892 643.851 278.97 673.425 262.546 702.719C255.693 714.705 248.332 726.176 241.4 738.028C251.261 750.691 272.744 770.327 285.697 779.874C293.94 767.615 303.529 748.249 311.859 734.685C336.377 694.435 361.87 654.788 388.316 615.779C393.003 608.851 405.724 588.563 411.296 584.22L411.121 584.683C407.609 593.554 398.986 605.133 393.582 613.308L360.139 663.923C334.836 702.339 310.873 741.621 288.296 781.7C316.094 802.572 335.006 813.041 367.319 824.7C375.099 813.44 384.042 797.631 391.252 785.667C405.241 762.861 418.927 739.869 432.305 716.7L454.955 677.66C460.613 668.003 466.981 657.768 471.738 647.716C471.272 640.921 465.475 604.052 468.85 600.644L469.684 601.015C471.538 604.55 475.201 639.609 476.549 646.652C483.68 652.036 491.006 658.393 498 664.061L541.893 699.323C578.612 728.805 616.896 756.282 656.579 781.635C678.597 795.754 707.305 812.657 732.112 821.356C764.588 832.746 811.778 834.637 843.166 818.824C826.366 806.56 811.235 789.724 799.224 772.789C793.935 765.333 789.206 757.411 783.93 749.863L783.413 750.202C748.774 772.606 719.319 761.922 687.805 740.314C669.848 728.002 652.745 715.528 635.467 702.251L576.143 656.469C563.612 646.892 551.134 637.245 538.711 627.529C529.889 620.744 495.412 595.278 490.507 587.479C496.68 590.602 504.633 597.085 510.297 601.449L536.476 621.751L610.084 678.699C637.84 700.121 697.312 749.387 728.701 757.784C747.869 762.911 765.993 756.997 782.563 747.333C773.818 731.213 766.153 714.53 759.62 697.393C750.918 674.272 743.136 644.709 730.837 623.51C728.819 620.032 712.278 609.011 707.554 605.705C715.101 623.432 720.743 642.11 726.966 660.331C728.061 663.538 729.053 666.711 729.902 669.992L728.501 671.215L729.052 671.848C724.799 667.753 722.073 655.917 720.02 650.03C715.846 638.193 711.588 626.385 707.246 614.609C706.468 612.482 703.153 602.995 702.163 601.802C697.472 596.153 691.353 592.082 685.864 586.29C686.227 586.385 687.644 586.768 687.838 586.867C704.217 595.253 739.559 619.504 752.662 630.112C768.979 643.323 829.025 698.292 836.338 713.636C828.249 707.421 816.592 694.032 808.95 686.277C794.123 671.44 778.761 657.149 762.893 643.431C756.69 638.035 747.761 629.953 741.23 625.519C745.584 631.387 751.044 637.42 755.597 643.385C768.907 660.467 778.899 679.891 785.057 700.653C783.092 702.617 782.321 703.525 779.551 703.563L778.873 702.873C779.366 700.8 779.713 701.045 781.527 699.25C774.49 674.642 756.743 647.524 739.691 628.372C743.154 635.951 748.032 645.837 750.914 653.467C758.546 673.673 764.963 694.578 773.752 714.392C783.684 736.78 797.317 760.398 812.567 779.673C832.598 804.991 861.064 827.615 892.429 836.444C900.763 838.79 912.889 839.697 921.787 840.717C927.473 831.152 930.622 825.121 935.401 814.935C929.411 812.05 920.538 808.957 914.241 806.626C904.499 802.956 894.713 799.405 884.885 795.972C889.469 786.835 898.053 773.689 903.562 764.788C915.501 745.478 927.598 726.266 939.852 707.154C934.035 704.184 923.565 700.146 917.269 697.562L868.466 677.914C882.224 649.365 898.958 619.417 914.423 591.588C889.473 581.025 864.196 571.252 838.629 562.284C842.361 552.835 851.762 535.661 856.866 526.021C865.199 510.281 874.153 490.749 883.167 475.811C878.73 473.854 867.22 470.299 862.355 468.641C849.687 464.371 837.067 459.959 824.499 455.405C817.821 452.996 809.918 450.346 803.534 447.523C816.519 420.043 831.882 390.087 845.99 363.122C816.725 356.641 786.926 347.933 757.468 341.184C757.353 318.045 760.104 292.963 761.949 269.761C762.034 268.691 763.778 267.875 764.659 267.392C769.215 267.117 794.08 277.066 800.459 279.358C786.97 264.188 766.91 248.634 748.064 241.288C736.171 244.582 711.066 247.747 697.874 250.155C688.695 251.796 679.543 253.578 670.419 255.502C664.35 256.831 660.065 258.292 653.782 259.22L653.549 259.009C684.537 247.62 710.177 243.839 742.319 239.801C739.614 232.305 736.24 225.067 732.239 218.175C727.954 219.878 723.826 221.393 719.237 222.01C715.928 222.548 711.645 222.041 708.535 223.193C679.552 233.928 652.399 247.829 628.653 267.7C642.861 265.792 658.889 263.825 673.268 262.469C688.499 261.033 711.474 260.129 725.781 264.899C730.055 266.324 733.337 268.791 736.716 271.63C732.454 270.092 724.42 267.166 720.165 266.758C695.832 264.425 665.868 268.449 641.599 271.775C613.631 276.257 580.377 274.441 557.307 293.482C539.101 308.509 523.74 328.888 506.806 345.567C503.078 349.238 500.484 358.886 497.197 363.357C489.168 374.275 475.501 382.583 464.487 390.514L464.486 382.974C473.497 376.465 486.259 368.607 492.316 359.334C495.87 353.894 497.919 345.701 502.531 340.545C511.682 330.75 520.809 321.664 529.575 311.46C523.249 308.271 522.673 306.397 518.735 300.412C506.502 295.612 507.362 294.426 505.945 282.971C504.611 272.179 483.565 276.11 480.425 265.705C477.172 255.136 493.43 247.12 487.962 233.902C484.033 224.406 475.882 221.672 470.887 213.611C458.152 217.452 396.285 233.026 387.079 228.308C386.04 227.776 385.356 227.173 385.149 225.969C384.487 222.118 390.28 216.31 392.774 213.755C410.522 195.581 432.284 180.427 453.623 166.821Z"/><path fill="#807F7F" transform="scale(0.175781 0.175781)" d="M568.677 42.7059C574.528 41.9017 586.304 42.354 592.152 43.3634C620.257 48.2143 639.023 64.2884 655.199 86.5686C652.261 86.794 648.046 86.7143 645.873 88.5433C644.592 92.756 647.964 106.423 649.007 111.405C653.317 111.554 657.229 111.895 661.508 112.284C662.012 114.201 662.385 116.337 662.777 118.297C617.384 118.839 583.182 126.185 539.795 139.745C536.857 140.447 533.338 141.551 530.427 142.461C507.155 149.735 483.189 156.064 460.163 163.982C459.623 157.052 459.942 150.291 460.222 143.386C462.883 77.7605 506.807 48.1935 568.677 42.7059Z"/><path fill="white" transform="scale(0.175781 0.175781)" d="M578.513 161.149C594.839 162.796 599.321 185.241 596.128 198.34C595.358 192.76 594.919 187.42 591.412 182.705C589.328 179.903 583.245 174.501 579.72 177.551L580.003 178.248C595.859 178.898 598.603 211.175 579.089 217.952L572.151 212.695C574.065 216.03 575.379 217.643 577.798 220.672C577.428 242.262 573.97 247.882 564.55 267.545C576.851 252.449 581.214 240.922 580.419 221.947C587.767 221.886 589.411 219.546 594.219 214.446C602.702 222.314 609.717 226.579 620.431 230.754C601.424 245.797 588.104 257.195 574.032 277.122C557.395 281.672 545.603 294.528 533.471 306.374C532.728 305.96 531.99 305.538 531.257 305.107C530.203 304.484 527.033 302.465 526.917 300.834C526.537 295.536 542.51 275.516 536.276 271.885C534.39 272.025 533.452 273.147 531.939 274.392C529.749 276.573 517.143 286.891 517.088 288.255C523.406 288.373 530.898 279.859 535.145 275.537C532.364 282.445 528.944 289.078 524.93 295.349C504.14 291.053 517.696 282.448 505.775 271.838C499.302 266.078 493.872 272.395 485.44 261.542C491.031 253.962 495.7 247.41 495.157 237.295C494.557 226.139 484.337 218.962 476.495 212.038C478.359 209.937 482.049 204.29 483.848 201.757C490.746 192.049 496.826 188.511 507.058 183.378C506.256 183.378 505.454 183.383 504.652 183.394C491.288 183.579 479.93 186.417 470.389 196.181C469.709 192.292 468.558 187.677 467.69 183.769C476.664 179.168 486.69 174.571 495.823 170.072C510.053 179.557 526.482 185.285 542.177 191.705C543.008 192.045 544.751 194.094 545.441 194.789C548.47 197.832 553.592 199.369 555.737 194.49C556.199 193.434 558.097 192.881 559.267 192.329C562.51 199.191 564.63 203.702 568.72 210.118C565.814 196.366 558.672 184.407 566.672 170.39C569.221 165.848 573.487 162.519 578.513 161.149Z"/><path fill="#252525" transform="scale(0.175781 0.175781)" d="M511.135 201.526L512.046 201.584L512.555 202.212C511.083 209.662 499.77 220.89 493.26 224.614C490.998 222.324 491.48 216.673 491.554 213.615C495.814 205.542 503.051 203.934 511.135 201.526Z"/><path fill="#323031" transform="scale(0.175781 0.175781)" d="M500.365 245.361C503.473 247.395 505.424 252.69 506.497 256.133C503.138 254.034 500.975 249.143 500.365 245.361Z"/><path fill="#E8E8E9" transform="scale(0.175781 0.175781)" d="M578.342 179.937C579.186 181.218 578.006 188.122 577.758 190.128C576.167 188.961 577.962 181.922 578.342 179.937Z"/><path fill="#807F7F" transform="scale(0.175781 0.175781)" d="M889.288 477.726C898.768 481.699 908.313 485.515 917.918 489.174C925.125 509.956 931.851 530.901 938.089 551.993C930.912 562.64 924.182 574.711 917.751 585.895C912.892 583.691 907.121 581.452 902.136 579.385L847.407 558.294C861.528 531.522 875.488 504.665 889.288 477.726Z"/><path fill="#807F7F" transform="scale(0.175781 0.175781)" d="M920.643 593.854C928.251 596.082 942.135 602.002 950.321 604.943C951.576 614.232 953.519 624.067 954.874 633.52C956.906 647.763 958.45 662.072 959.505 676.42C954.536 683.354 947.721 694.521 943.406 701.814C936.984 698.82 930.71 696.353 924.128 693.731C908.799 686.984 892.932 681.184 877.471 674.58C882.5 663.29 890.59 649.148 896.564 638.144C904.528 623.475 912.494 608.376 920.643 593.854Z"/><path fill="#807F7F" transform="scale(0.175781 0.175781)" d="M308.781 859.88C313.911 865.143 318.195 880.806 320.371 887.994C308.632 893.937 290.451 900.96 277.914 904.977C265.843 908.844 253.053 912.071 241.315 905.773C244.231 901.614 249.108 895.973 249.479 890.836C249.625 888.809 248.978 886.979 247.538 885.536C245.624 883.618 243.043 882.466 240.329 882.474C235.137 882.492 173.652 912.332 166.228 916.325C163.289 917.905 159.177 920.032 156.971 922.576C156.025 923.668 155.666 925.578 155.911 926.988C156.298 929.214 157.916 930.92 159.781 932.073C168.981 937.763 192.076 929.866 202.209 927.295C206.052 931.895 211.435 940.415 215.041 945.681C215.683 946.56 215.655 946.609 216.131 947.602C214.883 948.442 196.517 948.303 193.858 948.335L132.86 949.449C132.182 931.672 133.497 909.271 147.54 896.657C150.101 900.249 151.757 902.51 154.688 905.765C171.634 898.283 188.52 890.665 205.344 882.912C214.77 878.595 228.479 871.971 238.02 868.583C254.203 872.693 256.931 884.04 270.876 884.829C283.557 885.547 300.165 868.419 308.781 859.88Z"/><path fill="#807F7F" transform="scale(0.175781 0.175781)" d="M854.958 359.751C860.067 362.487 896.536 433.489 901.001 443.897C896.893 449.406 889.789 463.677 886.63 469.952C879.643 467.322 872.2 464.933 865.098 462.545C847.435 456.29 829.586 450.477 811.989 444.067C826.589 416.946 840.846 387.345 854.958 359.751Z"/><path fill="white" transform="scale(0.175781 0.175781)" d="M246.777 576.878C247.524 577.819 251.957 587.283 252.991 589.253C256.416 595.778 259.125 599.753 263.414 605.584C259.005 615.122 256.502 627.824 251.049 636.318C241.934 650.515 220.938 667.288 212.055 681.074C211.834 686.532 210.24 700.793 212.977 705.677C214.909 708.38 223.597 706.421 225.705 708.08C233.665 714.343 236.923 713.792 246.85 714.706C245.415 717.383 243.432 721.34 241.764 723.742C230.117 709.203 212.98 721.662 197.266 709.529C198.969 703.766 205.101 669.634 199.738 667.295C198.508 668.368 198.509 669.468 198.172 671.109C193.376 708.837 185.246 721.54 228.583 720.819C231.379 720.773 238.584 723.437 235.996 726.996C233.162 728.327 231.649 727.964 228.877 728.519C211.368 732.024 200.22 728.665 187.599 716.429C186.963 701.851 181.715 696.167 187.598 680.41C190.34 673.064 191.528 665.497 195.223 657.763C208.691 629.578 226.803 600.824 246.777 576.878Z"/><path fill="#807F7F" transform="scale(0.175781 0.175781)" d="M238.959 885.487C257.955 884.106 232.025 911.201 229.372 916.602C223.44 928.677 235.697 928.534 244.064 928.476C272.387 928.282 298.118 917.873 324.364 909.016C326.382 921.257 325.847 934.323 325.096 946.659C310.398 947.994 293.277 948.181 278.524 948.415C259.255 948.484 239.987 948.438 220.718 948.275C217.304 943.175 207.771 928.389 204.121 924.908C189.425 924.771 178.805 932.39 164.8 930.863C162.626 930.626 160.694 929.822 159.443 927.962C158.731 923.854 162.887 921.603 166.208 919.928C175.15 915.418 184.354 910.926 193.454 906.739C208.231 899.94 223.743 890.921 238.959 885.487Z"/><path fill="#807F7F" transform="scale(0.175781 0.175781)" d="M476.935 654.897C491.96 667.947 507.943 680.081 523.351 692.664C561.959 724.193 599.891 752.456 641.705 779.637C639.193 781.172 636.362 782.318 633.657 783.504C620.63 788.831 610.739 788.991 597.07 789.038C590.903 784.395 583.894 777.843 578.135 772.405C549.072 744.958 517.013 719.928 491.724 688.791C484.754 680.209 478.911 670.252 473.202 660.881L476.935 654.897Z"/><path fill="#807F7F" transform="scale(0.175781 0.175781)" d="M721.982 824.348C731.348 828.26 746.01 832.031 755.848 834.351C751.447 839.552 744.167 846.733 739.219 851.661C735.369 850.247 731.488 848.818 727.609 847.489C725.435 846.744 722.828 845.326 721.171 847.277C721.16 849.029 721.983 850.308 723.026 851.659C726.887 856.663 736.174 864.677 742.649 865.258C750.274 865.942 770.295 842.478 777.342 836.748C792.61 837.509 802.024 836.735 816.915 834.039C814.461 835.561 812.168 837.267 809.852 838.985C796.232 849.087 782.328 858.779 768.827 869.039C754.43 879.941 745.098 886.409 729.867 896.174C725.541 889.952 720.423 881.822 714.904 876.814C702.927 879.955 689.199 896.793 678.004 906.032C672.42 904.393 664.629 900.361 659.632 897.471C662.091 893.006 671.679 882.772 675.32 878.237C684.77 866.467 694.941 855.039 704.944 843.741C710.64 837.308 715.983 830.502 721.982 824.348Z"/><path fill="#807F7F" transform="scale(0.175781 0.175781)" d="M855.308 827.945C857.721 828.014 865.861 832.954 868.453 834.418C850.8 849.003 828.491 862.946 810.127 877.062C796.983 886.787 783.688 896.317 770.565 906.072C762.082 912.378 753.746 919.588 744.951 925.423C703.617 952.846 657.488 976.801 609.499 989.62L604.961 990.651L596.849 978.769C642.918 970.792 719.215 928.521 757.051 900.519L822.945 851.244C831.83 844.679 845.75 833.807 854.7 828.315L855.308 827.945Z"/><path fill="#807F7F" transform="scale(0.175781 0.175781)" d="M767.509 274.084C775.621 277.072 801.15 285.158 806.478 289.385C812.707 294.327 852.464 349.649 851.452 355.175C850.6 356.38 850.678 356.494 849.39 357.133C844.993 355.974 840.519 354.847 836.086 353.838C812.124 348.38 788.048 341.125 764.015 336.139C764.8 315.548 766.547 294.748 767.509 274.084Z"/><path fill="#807F7F" transform="scale(0.175781 0.175781)" d="M50.7736 954C64.9453 959.784 78.9318 965.502 94.4271 966.677C133.363 969.628 172.541 964.673 211.672 963.973C247.133 963.339 292.214 969.791 326.653 965.052C326.461 968.54 325.819 971.624 325.192 975.053C324.242 975.935 322.964 976.481 321.758 976.918C299.913 984.823 232.914 980.276 207.23 979.116C189.906 978.331 172.576 977.657 155.243 977.096C115.541 975.825 90.233 980.328 52.0695 962.911C51.3348 959.563 51.1133 957.399 50.7736 954Z"/><path fill="#807F7F" transform="scale(0.175781 0.175781)" d="M946.09 709.303C950.505 711.138 954.899 713.021 959.272 714.95C956.473 750.595 950.579 775.809 937.818 808.806C930.256 805.71 922.626 802.781 914.935 800.021C907.857 797.56 900.827 794.962 893.849 792.229C911.23 766.138 929.47 736.075 946.09 709.303Z"/><path fill="#807F7F" transform="scale(0.175781 0.175781)" d="M141.215 888.946C142.51 889.331 144.996 892.9 145.947 894.126C128.508 909.579 127.654 927.506 129.05 949.498C107.432 949.654 92.0092 949.468 70.8679 943.455C69.5607 943.074 68.2563 942.683 66.9547 942.282C58.5144 939.674 56.9246 936.863 59.7633 928.255C67.6278 904.408 95.7879 904.417 116.093 899.263C124.762 897.062 133.194 892.923 141.215 888.946Z"/><path fill="#807F7F" transform="scale(0.175781 0.175781)" d="M599.819 130.594C600.891 130.469 601.792 130.39 602.821 130.895C619.684 139.18 636.857 149.057 655.868 151.111C658.72 151.419 662.099 151.227 664.957 151.136C663.812 156.663 662.938 162.242 662.339 167.854C651.888 166.725 640.251 168.342 629.9 166.665C616.819 164.546 603.807 158.688 590.698 156.435C577.668 154.197 564.136 155.027 550.95 153.501C546.82 153.024 535.043 149.978 532.116 150.744C512.467 155.885 488.263 166.941 470.162 175.479C449.205 185.355 432.143 193.372 412.099 205.069C422.85 195.519 433.702 187.424 445.677 179.468C452.994 174.607 458.601 170.174 467.224 167.64C477.039 164.755 486.772 161.56 496.591 158.683C530.753 148.173 564.925 138.402 599.819 130.594Z"/><path fill="#807F7F" transform="scale(0.175781 0.175781)" d="M286.121 784.286C293.273 788.707 300.332 794.121 307.469 798.747C326.62 811.16 344.17 820.42 366.166 826.557C361.146 834.201 356.735 842.814 351.297 850.161C350.543 851.18 350.728 850.886 349.394 850.984C318.165 843.84 293.588 832.193 267.992 813.46C272.741 804.952 280.507 791.836 286.121 784.286Z"/><path fill="#807F7F" transform="scale(0.175781 0.175781)" d="M862.72 309.424C864.757 311.369 872.269 323.65 874.242 326.935C889.172 351.798 903.797 377.078 918.046 402.332C910.834 407.711 903.646 412.939 896.833 418.82C895.188 418.143 889.915 406.924 888.716 404.677C879.314 387.132 869.4 369.868 858.986 352.904C853.275 343.688 847.188 334.804 841.481 325.616C847.277 320.505 856.339 314.159 862.72 309.424Z"/><path fill="white" transform="scale(0.175781 0.175781)" d="M253.252 810.258C276.416 828.53 282.584 832.339 309.501 843.626C303.929 859.041 301.832 860.052 289.169 870.979C268.222 888.238 265.934 876.834 247.488 866.24L246.657 865.768C247.582 854.125 246.844 843.341 240.903 833.21C245.545 825.547 249.194 818.214 253.252 810.258Z"/><path fill="#807F7F" transform="scale(0.175781 0.175781)" d="M676.988 201.931C678.767 202.353 682.955 208.993 685.94 211.305C691.603 215.69 694.453 217.023 701.081 219.609C670.635 232.022 642.01 245.292 618.27 269.059C614.372 269.46 610.303 269.744 606.384 270.076C598.891 270.891 591.46 272.202 584.141 274.002C606.05 247.198 645.778 216.831 676.988 201.931Z"/><path fill="#807F7F" transform="scale(0.175781 0.175781)" d="M630.749 899.989C647.337 907.906 657.183 917.45 668.121 931.848C653.861 938.565 640.166 945.157 625.354 950.624C615.946 954.201 605.951 957.401 596.355 960.518C592.77 930.486 610.864 918.088 630.749 899.989Z"/><path fill="#807F7F" transform="scale(0.175781 0.175781)" d="M239.465 741.269C241.255 742.399 254.686 756.642 257.299 759.205C265.799 767.522 274.789 775.324 284.219 782.57C278.012 792.466 272.18 801.633 266.3 811.77L265.692 811.812C256.647 806.035 230.26 778.559 222.042 769.416C228.023 760.142 233.832 750.758 239.465 741.269Z"/><path fill="#807F7F" transform="scale(0.175781 0.175781)" d="M52.8666 941.809C61.9207 949.374 82.7357 952.995 94.1378 954.097C111.269 955.752 128.635 954.64 145.773 953.867C161.038 953.216 176.31 952.749 191.587 952.466C237.334 951.86 279.05 954.209 325.442 951.766C325.525 954.314 326.148 956.252 325.397 958.636C324.092 959.954 324.276 959.545 322.004 959.918C281.28 961.918 244.73 958.077 204.237 958.462C164.502 958.84 123.831 966.562 84.317 959.966C79.0973 959.095 53.8495 952.905 51.0922 948.881C50.413 946.138 51.5498 944.297 52.8666 941.809Z"/><path fill="#807F7F" transform="scale(0.175781 0.175781)" d="M847.496 821.946C849.4 822.878 848.924 822.184 849.552 823.705C849.47 823.868 849.403 824.04 849.305 824.195C847.942 826.345 814.002 850.501 808.541 854.43C797.301 862.517 786.015 870.666 775.041 879.108C767.928 884.58 761.052 890.371 753.734 895.573C746.205 900.925 738.279 905.788 730.513 910.79C688.476 937.866 643.223 962.022 594.249 973.467C592.831 971.477 592.042 969.606 590.989 967.41C651.203 951.677 706.048 921.351 756.628 885.712C781.622 868.101 805.438 847.749 831.627 831.705C837.033 828.393 842.291 825.731 847.496 821.946Z"/><path fill="#807F7F" transform="scale(0.175781 0.175781)" d="M712.189 879.824C716.712 880.478 725.092 894.034 727.72 897.883C709.39 909.626 690.464 920.411 671.017 930.194C661.976 918.79 657.473 913.492 645.779 904.853C641.124 901.98 637.868 900.199 633.038 897.74C637.753 892.912 641.312 888.895 645.663 883.783C651.657 885.45 655.782 887.119 661.382 889.761C660.396 890.939 658.498 893.192 658.017 894.621C655.149 903.138 672.015 907.426 678.174 909.721C690.631 903.066 699.783 889.286 712.189 879.824Z"/><path fill="#807F7F" transform="scale(0.175781 0.175781)" d="M675.394 147.603C685.344 150.36 696.466 152.594 705.42 157.653C727.04 169.868 735.241 192.068 741.533 214.657C729.842 209.242 715.303 199.443 706.558 190.123C698.481 181.515 691.949 170.458 684.872 160.979C682.634 157.981 675.278 150.626 675.394 147.603Z"/><path fill="#807F7F" transform="scale(0.175781 0.175781)" d="M643.457 781.45C645.174 781.597 665.669 795.183 668.885 797.188C664.715 801.457 659.02 806.099 654.476 810.144C648.832 815.18 643.33 820.372 637.974 825.714C635.781 823.343 633.662 821.523 631.246 819.39C620.909 810.248 610.249 800.483 599.724 791.659C616.387 791.523 629.038 790.432 643.457 781.45Z"/><path fill="#807F7F" transform="scale(0.175781 0.175781)" d="M673.971 149.703C676.343 150.917 701.026 188.276 707.156 195.147C710.834 199.276 714.866 203.076 719.207 206.503C721.028 207.948 726.957 211.587 727.59 212.436L727.282 213.295L725.085 214.228C707.491 219.7 690.624 211.629 681.825 195.816C679.629 191.849 677.9 187.64 676.674 183.274C674.763 176.476 672.133 156.239 673.971 149.703Z"/><path fill="#807F7F" transform="scale(0.175781 0.175781)" d="M320.447 891.471C322.102 892.9 323.668 902.981 324.224 905.768C300.092 915.19 257.132 929.157 231.398 924.032C228.71 919.781 235.928 911.802 238.732 908.483C239.945 909.066 241.171 909.618 242.41 910.141C262.641 918.515 300.759 899.821 320.447 891.471Z"/><path fill="white" transform="scale(0.175781 0.175781)" d="M275.457 616.601C285.473 620.594 284.655 624.954 298.964 621.088C286.343 647.236 268.42 677.996 254.369 703.831L251.247 708.888C248.19 708.35 236.519 707.61 235.167 705.718C239.128 705.344 243.015 705.206 246.407 702.57C254.48 696.297 254.633 677.551 258.438 670.23C263.399 660.681 267.723 660.003 271.089 647.572C274.283 635.776 273.883 628.032 275.457 616.601Z"/><path fill="#807F7F" transform="scale(0.175781 0.175781)" d="M693.408 143.704C723.514 140.261 742.246 161.605 748.703 189.594C750.371 196.823 747.089 208.36 745.214 215.488L742.473 207.032C733.71 181.04 724.5 158.494 695.364 151.485C689.627 150.104 682.593 148.303 677.052 146.373C681.946 144.981 688.27 144.337 693.408 143.704Z"/><path fill="white" transform="scale(0.175781 0.175781)" d="M266.449 609.201C267.662 610.187 268.441 611.326 269.406 612.557C268.614 625.46 267.663 642.23 261.427 653.761C257.978 658.894 254.8 663.545 252.112 669.119C249.417 674.709 246.403 708.834 234.948 697.467C232.038 686.628 244.542 672.517 233.372 661.763C256.5 638.092 255.762 640.855 266.449 609.201Z"/><path fill="#807F7F" transform="scale(0.175781 0.175781)" d="M460.855 186.461L461.535 186.59C463.503 190.197 466.848 203.052 468.559 207.979C445.345 215.196 425.547 218.736 401.513 222.098L394.278 222.966C406.365 215.092 418.259 207.466 431.062 200.781C440.75 195.722 450.948 191.133 460.855 186.461Z"/><path fill="#807F7F" transform="scale(0.175781 0.175781)" d="M710.327 129.224C719.622 129.031 728.629 132.452 735.452 138.768C747.082 149.58 754.208 173.55 754.649 188.837C750.571 178.967 747.391 172.929 741.601 164.142C722.289 135.828 704.286 139.795 674.261 144.921C684.722 135.582 696.406 130.262 710.327 129.224Z"/><path fill="#807F7F" transform="scale(0.175781 0.175781)" d="M231.075 836.11C244.581 838.563 242.723 853.445 242.675 864.264C233.256 863.06 227.098 867.145 218.4 871.079L217.651 871.118C215.262 869.52 208.46 854.884 206.76 851.419C213.053 847.228 224.467 839.267 231.075 836.11Z"/><path fill="#807F7F" transform="scale(0.175781 0.175781)" d="M642.584 124.73C647.819 123.81 665.054 140.696 668.59 144.609C668.01 145.193 666.391 146.812 665.717 147.04C658.306 149.546 645.943 146.127 639.161 143.982C630.57 141.444 615.932 133.992 608.174 129.311C617.722 126.909 632.782 125.567 642.584 124.73Z"/><path fill="#807F7F" transform="scale(0.175781 0.175781)" d="M653.263 170.956C655.15 170.63 659.836 171.221 662.004 171.424L662.236 179.874C643.902 191.808 629.933 194.594 608.459 191.356C606.041 190.925 603.443 190.325 601.021 189.818L599.899 179.229C604.243 179.806 608.411 180.793 612.865 181.362C628.594 183.371 639.894 178.733 653.263 170.956Z"/><path fill="#807F7F" transform="scale(0.175781 0.175781)" d="M818.801 273.422C818.908 273.434 819.016 273.436 819.12 273.459C822.431 274.211 845.337 307.651 848.547 312.677C845.082 315.122 841.492 318.035 838.124 320.66C828.482 306.792 818.347 293.273 807.737 280.13L818.801 273.422Z"/><path fill="#807F7F" transform="scale(0.175781 0.175781)" d="M662.375 182.963C662.869 183.877 664.837 194.832 665.367 196.875C644.415 203.72 626.206 209.031 604.375 202.233L599.714 200.768L601.064 192.482C628.213 198.024 638.764 197.598 662.375 182.963Z"/><path fill="#807F7F" transform="scale(0.175781 0.175781)" d="M910.858 415.102C913.952 418.214 924.362 436.808 926.623 441.408C922.13 445.189 917.684 449.024 913.287 452.915C912.915 453.276 912.435 453.578 912.002 453.887C910.662 452.217 900.629 427.839 898.805 423.706C902.827 420.724 906.659 417.847 910.858 415.102Z"/><path fill="#807F7F" transform="scale(0.175781 0.175781)" d="M520.504 158.938C536.452 167.103 541.677 169.572 559.543 173.252C558.851 175.25 558.23 177.633 557.635 179.692C553.564 179.438 549.049 178.799 544.964 178.311C529.003 176.392 517.488 174.439 502.892 167.153C508.094 164.213 515.005 161.276 520.504 158.938Z"/><path fill="#807F7F" transform="scale(0.175781 0.175781)" d="M661.159 201.577L661.435 201.629L661.656 202.033C653.587 207.556 641.259 215.878 632.908 220.604C619.763 219.22 614.86 218.548 603.242 212.103L597.259 208.256C597.898 206.659 598.506 204.684 599.067 203.026C625.299 211.028 635.633 209.107 661.159 201.577Z"/><path fill="#807F7F" transform="scale(0.175781 0.175781)" d="M587.506 159.46C595.856 159.612 613.577 166.23 622.295 168.437C632.213 170.948 635.627 171.303 645.721 171.835L641.378 173.8C626.031 181.157 615.014 178.255 599.3 176.331C596.261 167.925 594.935 164.703 587.506 159.46Z"/><path fill="#807F7F" transform="scale(0.175781 0.175781)" d="M532.878 153.498C543.488 153.995 559.371 156.836 571.093 157.886C566.086 161.83 564.115 164.455 560.793 169.785C560.425 170.275 560.701 169.988 559.775 170.412C547.063 168.388 534.837 164.027 523.714 157.549C526.509 156.451 530.068 154.744 532.878 153.498Z"/><path fill="#807F7F" transform="scale(0.175781 0.175781)" d="M759.279 834.92C763.948 835.521 768.622 836.088 773.299 836.62C763.589 845.264 754.618 856.846 743.181 863.068C741.045 862.214 740.077 861.7 738.077 860.548C733.563 857.733 727.799 852.658 723.66 849.134C729.537 851.275 734.04 852.975 740.176 854.375C744.029 851.199 755.045 839.201 759.279 834.92Z"/><path fill="#807F7F" transform="scale(0.175781 0.175781)" d="M939.782 561.397C942.682 566.953 947.396 590.217 948.919 597.522L938.803 593.489C934.088 591.496 928.825 589.613 924.008 587.785C929.15 578.973 934.519 570.147 939.782 561.397Z"/><path fill="white" transform="scale(0.175781 0.175781)" d="M230.456 668.331C235.195 672.697 224.196 691.524 231.357 703.035C228.179 702.1 226.62 701.721 223.337 701.193C221.757 700.994 219.292 700.991 217.631 700.934C218.021 694.943 218.268 688.943 218.373 682.939C221.192 678.828 227.105 672.256 230.456 668.331Z"/><path fill="#807F7F" transform="scale(0.175781 0.175781)" d="M202.962 854.013C204.634 855.829 211.224 870.047 212.789 873.24L200.995 878.548C199.14 877.687 192.741 864.49 191.241 861.58C195.49 858.597 198.441 856.637 202.962 854.013Z"/><path fill="#807F7F" transform="scale(0.175781 0.175781)" d="M903.413 452.399C905.411 454.798 913.637 476.828 915.199 481.115L907.123 477.752L892.337 471.774C896.11 465.489 899.809 458.801 903.413 452.399Z"/><path fill="#807F7F" transform="scale(0.175781 0.175781)" d="M676.194 838.712C684.71 841.858 687.668 843.662 694.729 849.428C692.327 852.535 689.068 856.164 686.482 859.208C685.355 860.13 684.585 858.958 683.638 858C679.27 853.585 674.88 851.985 669.194 849.919C671.49 846.16 673.823 842.424 676.194 838.712Z"/><path fill="#807F7F" transform="scale(0.175781 0.175781)" d="M693.27 811.354C696.206 813.525 712.282 820.806 716.559 822.809L709.643 830.604L708.616 831.622C707.173 831.971 699.074 825.408 696.296 824.149C693.285 822.785 690.785 821.655 687.593 820.521C689.437 817.465 691.386 814.393 693.27 811.354Z"/><path fill="#807F7F" transform="scale(0.175781 0.175781)" d="M684.761 825.302C692.526 827.2 698.994 831.669 705.038 836.67L698.737 844.74L697.803 844.972C691.648 839.828 686.394 836.927 678.75 834.517C680.417 831.655 682.891 828.127 684.761 825.302Z"/><path fill="#807F7F" transform="scale(0.175781 0.175781)" d="M666.574 854.294C673.7 856.204 677.102 859.076 681.9 864.279C679.771 867.314 677.036 870.377 674.609 873.223C667.925 868.985 666.719 868.329 658.933 865.709C661.163 862.002 664.104 857.909 666.574 854.294Z"/><path fill="#807F7F" transform="scale(0.175781 0.175781)" d="M187.084 863.995C188.243 864.603 194.789 878.715 195.888 880.968L185.657 885.648C183.5 882.52 179.17 874.488 176.819 870.64L187.084 863.995Z"/><path fill="#807F7F" transform="scale(0.175781 0.175781)" d="M656.083 870.08C662.445 871.165 666.451 873.442 671.714 876.936C669.458 879.889 665.84 883.782 663.322 886.66C662.857 886.535 657.615 884.117 656.838 883.786C653.745 882.466 651.305 881.667 648.092 880.646L656.083 870.08Z"/><path fill="#807F7F" transform="scale(0.175781 0.175781)" d="M668.65 152.822C669.538 155.153 669.437 174.194 670.251 178.869C671.336 185.105 674.24 190.314 675.058 195.209C674.449 196.587 672.886 197.211 671.492 198.034C669.4 198.014 670.238 198.367 668.773 197.29C664.03 187.883 665.621 163.06 668.65 152.822Z"/><path fill="#807F7F" transform="scale(0.175781 0.175781)" d="M171.651 873.454C173.453 873.972 179.356 885.395 180.629 887.743L171.667 891.898L171.379 891.952C169.303 891.133 164.266 881.482 162.784 878.906L171.651 873.454Z"/><path fill="#807F7F" transform="scale(0.175781 0.175781)" d="M157.67 881.443C158.976 881.896 164.316 892.484 165.396 894.479C162.346 895.935 159.33 897.462 156.351 899.059C153.487 894.655 150.569 890.966 147.356 886.835C150.803 885.055 154.241 883.258 157.67 881.443Z"/><path fill="#807F7F" transform="scale(0.175781 0.175781)" d="M650.607 124.097C663.958 123.826 672.766 122.871 670.598 140.252C669.546 140.215 663.352 133.974 661.939 132.791C658.234 129.69 654.499 126.938 650.607 124.097Z"/><path fill="#807F7F" transform="scale(0.175781 0.175781)" d="M959.642 688.321C960.479 690.402 959.987 704.977 959.929 708.046L952.77 705L949.816 703.578L959.642 688.321Z"/><path fill="#807F7F" transform="scale(0.175781 0.175781)" d="M529.453 180.928C532.545 180.976 553.421 184.126 556.481 184.754C557.414 185.874 557.353 187.423 557.523 188.96C548.247 189.19 537.823 184.91 529.453 180.928Z"/><path fill="#807F7F" transform="scale(0.175781 0.175781)" d="M649.607 90.5782L656.013 90.3997C657.228 94.3459 658.307 98.932 659.355 102.969L651.821 103.062C651.057 98.9056 650.318 94.7442 649.607 90.5782Z"/><path fill="#807F7F" transform="scale(0.175781 0.175781)" d="M658.777 89.5706C662.835 90.6235 665.593 99.5288 666.792 103.321C665.217 103.301 664.352 103.42 662.905 102.773C659.919 99.7249 659.359 93.8214 658.777 89.5706Z"/><path fill="#807F7F" transform="scale(0.175781 0.175781)" d="M611.894 220.441C614.353 220.608 626.687 223.218 628.645 224.196L628.586 225.061C622.839 228.632 616.795 223.733 611.894 220.441Z"/><path fill="white" transform="scale(0.175781 0.175781)" d="M211.61 735.273L220.89 734.874C221.301 737.494 221.436 739.685 221.621 742.315C219.195 742.209 213.812 737.136 211.61 735.273Z"/><path fill="#807F7F" transform="scale(0.175781 0.175781)" d="M665.406 113.506C666.824 113.831 667.158 113.99 668.512 114.564C670.009 116.024 669.969 116.855 670.465 119.007C668.672 118.942 667.758 119.058 666.142 118.257C665.091 116.919 665.393 115.323 665.406 113.506Z"/><path fill="#666" transform="scale(0.175781 0.175781)" d="M653.241 107.251C656.109 107.027 659.138 106.227 661.218 108.395C659.12 108.464 654.428 108.889 653.241 107.251Z"/><path fill="#97FB9C" transform="scale(0.175781 0.175781)" d="M436.497 485.041L460.024 485.009L460.22 512.69C459.725 516.284 460.262 520.343 460.222 524.024C460.01 543.497 460.779 563.47 459.918 582.898C452.085 582.969 444.251 582.991 436.417 582.964C435.734 570.566 436.177 555.608 436.316 542.966C426.043 542.953 415.345 543.091 405.106 542.815C405.253 556.213 404.98 569.599 405.121 582.987C397.462 583.001 389.62 583.104 381.977 583.001C381.566 573.079 382.192 561.376 381.608 552.125L381.54 546.6C382.119 526.644 381.655 505.502 381.974 485.288C389.058 484.805 398.19 485.105 405.322 485.191L405.278 524.273C412.262 524.015 419.614 524.041 426.631 523.966C428.926 522.724 434.05 521.23 436.611 520.522C435.949 514.688 436.48 492.174 436.497 485.041Z"/><path fill="#252525" transform="scale(0.175781 0.175781)" d="M426.631 523.966C428.926 522.724 434.05 521.23 436.611 520.522C436.535 521.522 436.666 522.945 436.066 523.423C434.098 524.991 429.424 523.935 426.631 523.966Z"/><path fill="#97FB9C" transform="scale(0.175781 0.175781)" d="M646.389 487.05C654.067 487.017 662.372 486.826 670 487.028C669.981 500.628 670.36 516.46 669.856 529.873C677.919 516.069 686.497 500.412 695.001 487.016C704.017 487.005 713.398 486.857 722.383 487.014C714.305 501.791 701.976 518.173 693.093 533.22L713.97 567.892C716.611 572.358 720.411 578.409 722.693 582.944L697.267 583.006C688.661 568.972 679.188 553.053 670.064 539.45L669.96 582.981C662.14 582.995 654.142 583.097 646.337 582.99C645.907 577.02 645.922 569.708 646.139 563.666L645.989 557.995C646.825 534.888 646.077 510.411 646.389 487.05Z"/><path fill="#97FB9C" transform="scale(0.175781 0.175781)" d="M480.862 485.133L521.244 485.013C526.447 484.989 538.328 484.637 543.058 485.224C543.776 486.606 543.54 487.786 543.563 489.5L543.589 493.626C543.384 497.5 543.564 501.017 543.441 504.79C529.904 504.961 518.055 504.402 504.734 504.229C504.861 510.699 504.943 517.171 504.981 523.643C516.326 523.717 527.672 523.682 539.016 523.537C539.092 529.526 539.334 536.681 539.087 542.562C528.48 542.67 514.991 542.277 504.694 543.003C504.444 549.852 504.497 556.607 504.519 563.458C517.67 563.533 530.821 563.52 543.971 563.42C543.982 569.844 544.094 576.573 543.966 582.971C524.035 583.01 500.545 583.557 480.941 582.748C479.848 561.091 480.715 533.222 480.81 511.127C481.276 507.972 480.883 489.077 480.862 485.133Z"/><path fill="#97FB9C" transform="scale(0.175781 0.175781)" d="M589.974 485.286C604.812 482.371 616.686 482.661 630.42 489.894C627.784 495.321 624.608 502.623 621.839 507.711C615.844 505.008 606.768 502.564 600.267 503.732L599.001 504.541C596.456 504.415 593.608 506.301 591.494 507.61C589.232 507.792 588.333 509.292 586.974 511.031C585.791 512.536 584.498 514.122 584.396 516.114C583.2 517.893 583.177 518.35 582.587 520.47L582.333 521.071C579.653 529.43 579.799 542.198 582.446 550.571C588.212 568.806 607.974 565.584 621.889 560.562C624.916 566.249 627.91 573.002 630.295 578.978C614.53 584.63 595.236 586.898 579.376 580.265C554.509 569.866 553.027 531.151 562.71 509.928L565.133 504.834C567.791 503.261 567.955 501.918 568.954 499.005C570.008 497.683 571.452 496.404 572.687 495.212C573.129 494.939 575.492 492.696 576.444 491.975C579.293 489.82 581.874 488.458 585.012 486.76C586.321 486.481 588.613 485.701 589.974 485.286Z"/><path fill="#97FB9C" transform="scale(0.175781 0.175781)" d="M319.984 580.84L319.424 580.599C309.381 576.163 301.544 567.875 297.675 557.601C296.129 553.567 295.135 549.442 294.591 545.179C288.916 500.647 324.778 472.758 365.696 491.606L359.666 508.708C343.347 501.727 326.153 500.665 320.385 521.203C316.33 535.638 317.803 559.469 334.861 564.348C339.183 565.329 340.606 565.376 345.192 565.041C352.529 564.313 354.173 563.688 361.071 560.808C362.46 566.65 363.911 572.477 365.426 578.288C354.368 582.822 337.201 586.549 325.65 582.754C323.757 582.13 321.868 581.492 319.984 580.84Z"/><path fill="#97FB9C" transform="scale(0.175781 0.175781)" d="M431.032 368.573C442.139 368.684 453.247 368.669 464.354 368.527C464.533 373.348 464.232 378.015 464.486 382.974L464.487 390.514L464.511 468.998L431.039 468.979L431.09 413.016C431.154 410.538 431.072 408.119 431.01 405.644C431.64 403.902 431.049 372.545 431.032 368.573Z"/><path fill="#252525" transform="scale(0.175781 0.175781)" d="M600.267 503.732C603.565 503.648 604.15 503.497 606.493 505.739C611.687 510.71 614.251 519.141 618.411 524.673C621.552 528.85 629.374 533.05 633.621 536.244C637.227 538.955 640.858 539.786 640.991 544.166L640.431 545.406C636.483 546.616 628.677 539.475 624.895 537.222C631.371 550.021 635.378 549.614 645.989 557.995L646.139 563.666C635.856 557.418 622.544 547.265 611.847 540.194C605.556 536.08 599.212 532.048 592.816 528.099C590.166 526.439 584.36 523.072 582.333 521.071L582.587 520.47C583.177 518.35 583.2 517.893 584.396 516.114C584.498 514.122 585.791 512.536 586.974 511.031C588.333 509.292 589.232 507.792 591.494 507.61C593.608 506.301 596.456 504.415 599.001 504.541L600.267 503.732Z"/><path fill="white" transform="scale(0.175781 0.175781)" d="M584.396 516.114C584.498 514.122 585.791 512.536 586.974 511.031C593.933 515.704 601.069 520.448 608.091 525.002C615.233 529.635 617.131 532.133 620.608 539.848C610.968 533.351 599.679 525.414 589.775 519.609C588.211 518.491 586.052 517.186 584.396 516.114Z"/><path fill="white" transform="scale(0.175781 0.175781)" d="M591.494 507.61C593.608 506.301 596.456 504.415 599.001 504.541C602.839 509.194 606.287 514.156 609.31 519.376C603.488 515.282 597.546 511.358 591.494 507.61Z"/><path fill="#323031" transform="scale(0.175781 0.175781)" d="M582.587 520.47C583.177 518.35 583.2 517.893 584.396 516.114C586.052 517.186 588.211 518.491 589.775 519.609C587.99 519.837 584.122 520.162 582.587 520.47Z"/><path fill="#252525" transform="scale(0.175781 0.175781)" d="M556.683 484.453C570.146 479.406 618.648 460.644 629.632 463.377L629.372 463.986C626.579 465.556 615.617 468.6 611.759 469.841C602.664 472.799 593.633 475.953 584.674 479.299C586.14 480.79 589.149 483.571 589.974 485.286C588.613 485.701 586.321 486.481 585.012 486.76C581.874 488.458 579.293 489.82 576.444 491.975C575.492 492.696 573.129 494.939 572.687 495.212C571.452 496.404 570.008 497.683 568.954 499.005C567.955 501.918 567.791 503.261 565.133 504.834L562.71 509.928C556.861 506.021 550.148 503.075 544.489 498.985C543.264 498.1 544.356 495.537 543.589 493.626L543.563 489.5C545.646 488.245 548.539 487.064 550.805 486.049C548.052 484.162 547.308 483.689 545.009 481.21L545.681 479.64C549.089 479.883 553.731 482.771 556.683 484.453Z"/><path fill="white" transform="scale(0.175781 0.175781)" d="M561.494 487.586C567.352 485.812 574.12 482.962 580.304 480.959C582.026 483.509 582.981 484.554 585.012 486.76C581.874 488.458 579.293 489.82 576.444 491.975C575.492 492.696 573.129 494.939 572.687 495.212C569.122 492.567 565.204 490.053 561.494 487.586Z"/><path fill="white" transform="scale(0.175781 0.175781)" d="M544.715 493.585C548.537 492.493 552.364 491.087 556.122 489.766C560.297 492.622 564.818 496.022 568.954 499.005C567.955 501.918 567.791 503.261 565.133 504.834C559.551 501.315 550.583 496.384 544.715 493.585Z"/><path fill="#252525" transform="scale(0.175781 0.175781)" d="M431.01 405.644C431.072 408.119 431.154 410.538 431.09 413.016L402.528 430.59C398.947 432.828 384.281 442.227 380.8 443.321C382.059 440.239 383.517 436.343 385.542 433.768C389.696 431.605 396.686 426.959 400.959 424.321L431.01 405.644Z"/><path fill="#252525" transform="scale(0.175781 0.175781)" d="M334.861 564.348C336.7 562.457 376.068 548.516 381.54 546.6L381.608 552.125C373.774 554.968 365.902 557.705 357.995 560.337C354.546 561.514 348.224 563.481 345.192 565.041C340.606 565.376 339.183 565.329 334.861 564.348Z"/><path fill="#252525" transform="scale(0.175781 0.175781)" d="M460.22 512.69C464.971 511.028 475.462 507.077 479.898 506.143C480.672 507.621 480.639 509.373 480.81 511.127C474.294 513.163 467.514 515.496 461.009 517.388C460.262 516.448 460.339 514.145 460.22 512.69Z"/><path fill="#97FB9C" transform="scale(0.175781 0.175781)" d="M493.963 368.464L538.456 368.438C559.028 368.37 594.203 363.67 598.268 391.295C600.169 404.215 593.82 410.764 583.342 416.484C600.15 422.407 605.726 433.529 600.34 450.654C591.798 471.843 558.318 469.038 539.77 469.03L493.969 468.99C493.579 456.974 493.893 443.215 493.888 431.057C493.794 410.193 493.819 389.328 493.963 368.464Z"/><path fill="#807F7F" transform="scale(0.175781 0.175781)" d="M525.561 429.052C533.241 428.981 580.151 424.111 565.652 442.872C558.947 446.054 534.244 445.058 525.654 445.01C525.566 439.691 525.534 434.371 525.561 429.052Z"/><path fill="#807F7F" transform="scale(0.175781 0.175781)" d="M533.37 391.225C541.467 390.777 571.129 388.602 564.544 403.724C563.733 405.587 561.677 405.957 559.926 406.354C550.045 407.587 536.734 407.143 526.487 407.068C526.343 401.881 526.298 396.692 526.351 391.503L533.37 391.225Z"/><path fill="#97FB9C" transform="scale(0.175781 0.175781)" d="M632.099 368.215L720.402 368.508C720.491 376.175 720.51 383.842 720.459 391.509L664.509 391.442L664.498 404.475L715.24 404.481L715.161 428.401C701.257 428.583 687.169 428.473 673.25 428.467L664.287 428.49L664.383 442.619L721.917 442.654L721.965 468.372L632.03 468.427C631.641 435.794 631.673 400.838 632.099 368.215Z"/><path fill="#252525" transform="scale(0.175781 0.175781)" d="M600.575 283.252C610.465 281.858 618.273 283.578 626.911 288.593C645.013 299.1 663.348 332.105 668.345 352.107C666.245 350.091 662.366 341.44 660.885 338.57C649.62 316.738 635.068 289.062 608.245 285.07C606.026 284.74 602.467 284.201 600.575 283.252Z"/><path fill="#97FB9C" transform="scale(0.175781 0.175781)" d="M376.355 368.555C387.905 368.865 399.526 368.293 410.98 368.738C406.009 384.176 398.592 400.426 392.664 415.558C390.981 419.855 386.492 429.777 385.542 433.768C383.517 436.343 382.059 440.239 380.8 443.321C377 452.059 373.07 460.741 369.013 469.362C365.795 469.354 338.196 468.983 336.99 469.409C332.762 469.615 332.757 470.197 330.502 466.962C326.378 457.951 321.382 443.845 317.641 434.317C308.916 412.534 300.439 390.653 292.211 368.677C303.671 368.469 315.839 368.776 327.482 368.657C331.019 377.332 334.227 387.107 337.345 396.001L351.995 437.589C352.845 434.196 354.139 430.142 355.389 426.854C362.629 407.82 368.476 387.23 376.355 368.555Z"/></svg>