<svg width="1600" height="1100" viewBox="0 0 1600 1100" fill="none" xmlns="http://www.w3.org/2000/svg">
  <rect width="1600" height="1100" fill="#0A0A0A"/>
  <text x="90" y="120" fill="#F5F5F5" font-family="Arial, sans-serif" font-size="72" font-weight="700">VIBE </text>
  <text x="315" y="120" fill="#CCFF00" font-family="Arial, sans-serif" font-size="72" font-weight="700">CART</text>
  <text x="92" y="162" fill="#8A8A8A" font-family="Arial, sans-serif" font-size="24">AI-enhanced cart concept mockup</text>

  <rect x="90" y="240" width="920" height="150" rx="18" fill="#111111" stroke="#CCFF00" stroke-width="4"/>
  <rect x="112" y="262" width="148" height="106" rx="12" fill="#1A1A1A" stroke="#00E5FF" stroke-width="3"/>
  <rect x="130" y="280" width="112" height="70" fill="none" stroke="#00E5FF" stroke-width="2"/>
  <text x="300" y="300" fill="#F5F5F5" font-family="Arial, sans-serif" font-size="38" font-weight="700">SIGNAL JERSEY 32</text>
  <rect x="300" y="322" width="145" height="32" rx="8" fill="#0A0A0A" stroke="#00E5FF" stroke-width="2"/>
  <text x="317" y="344" fill="#00E5FF" font-family="Arial, sans-serif" font-size="18" font-weight="700">TECHWEAR</text>
  <text x="300" y="372" fill="#8A8A8A" font-family="Arial, sans-serif" font-size="18">AI tag pulled from product style metadata</text>
  <text x="840" y="338" fill="#CCFF00" font-family="Arial, sans-serif" font-size="38" font-weight="700">$89</text>

  <rect x="90" y="440" width="920" height="150" rx="18" fill="#111111" stroke="#CCFF00" stroke-width="4"/>
  <rect x="112" y="462" width="148" height="106" rx="12" fill="#1A1A1A" stroke="#CCFF00" stroke-width="3"/>
  <rect x="130" y="480" width="112" height="70" fill="none" stroke="#CCFF00" stroke-width="2"/>
  <text x="300" y="500" fill="#F5F5F5" font-family="Arial, sans-serif" font-size="38" font-weight="700">TECH RIB TOP 67</text>
  <rect x="300" y="522" width="155" height="32" rx="8" fill="#0A0A0A" stroke="#CCFF00" stroke-width="2"/>
  <text x="317" y="544" fill="#CCFF00" font-family="Arial, sans-serif" font-size="18" font-weight="700">OVERSIZED</text>
  <text x="300" y="572" fill="#8A8A8A" font-family="Arial, sans-serif" font-size="18">Signals are collected from live cart items, not fixed categories.</text>
  <text x="840" y="538" fill="#CCFF00" font-family="Arial, sans-serif" font-size="38" font-weight="700">$64</text>

  <rect x="90" y="660" width="920" height="270" rx="18" fill="#111111" stroke="#CCFF00" stroke-width="4"/>
  <text x="118" y="708" fill="#CCFF00" font-family="Arial, sans-serif" font-size="42" font-weight="700">AI CART READ</text>
  <text x="118" y="760" fill="#F5F5F5" font-family="Arial, sans-serif" font-size="28" font-weight="700">Your cart leans technical, layered, and utility-heavy.</text>
  <text x="118" y="804" fill="#D7D7D7" font-family="Arial, sans-serif" font-size="24">테크웨어 중심에 레이어드와 유틸리티 무드가 강한 조합이에요.</text>

  <text x="118" y="854" fill="#F5F5F5" font-family="Arial, sans-serif" font-size="18" font-weight="700">TECHWEAR</text>
  <rect x="280" y="840" width="440" height="16" rx="8" fill="#1A1A1A" stroke="#333333"/>
  <rect x="280" y="840" width="378" height="16" rx="8" fill="#00E5FF"/>
  <text x="740" y="854" fill="#00E5FF" font-family="Arial, sans-serif" font-size="18" font-weight="700">86%</text>

  <text x="118" y="890" fill="#F5F5F5" font-family="Arial, sans-serif" font-size="18" font-weight="700">UTILITY</text>
  <rect x="280" y="876" width="440" height="16" rx="8" fill="#1A1A1A" stroke="#333333"/>
  <rect x="280" y="876" width="312" height="16" rx="8" fill="#CCFF00"/>
  <text x="740" y="890" fill="#CCFF00" font-family="Arial, sans-serif" font-size="18" font-weight="700">71%</text>

  <text x="118" y="926" fill="#F5F5F5" font-family="Arial, sans-serif" font-size="18" font-weight="700">OVERSIZED</text>
  <rect x="280" y="912" width="440" height="16" rx="8" fill="#1A1A1A" stroke="#333333"/>
  <rect x="280" y="912" width="255" height="16" rx="8" fill="#FF4FD8"/>
  <text x="740" y="926" fill="#FF4FD8" font-family="Arial, sans-serif" font-size="18" font-weight="700">58%</text>

  <rect x="1060" y="240" width="450" height="690" rx="18" fill="#111111" stroke="#CCFF00" stroke-width="4"/>
  <text x="1088" y="290" fill="#CCFF00" font-family="Arial, sans-serif" font-size="40" font-weight="700">YOU MAY ALSO LIKE</text>
  <text x="1088" y="324" fill="#8A8A8A" font-family="Arial, sans-serif" font-size="18">AI-picked add-ons based on your cart vibe</text>

  <rect x="1084" y="360" width="402" height="135" rx="14" fill="#0A0A0A" stroke="#00E5FF" stroke-width="3"/>
  <rect x="1102" y="378" width="96" height="96" rx="10" fill="#1A1A1A" stroke="#00E5FF" stroke-width="2"/>
  <text x="1218" y="400" fill="#F5F5F5" font-family="Arial, sans-serif" font-size="28" font-weight="700">TACTICAL SHELL 81</text>
  <text x="1218" y="436" fill="#D0D0D0" font-family="Arial, sans-serif" font-size="18">Balances the jersey with a sharper outer layer.</text>
  <rect x="1218" y="454" width="128" height="24" rx="8" fill="#00E5FF"/>
  <text x="1242" y="471" fill="#0A0A0A" font-family="Arial, sans-serif" font-size="14" font-weight="700">MATCH SCORE</text>

  <rect x="1084" y="530" width="402" height="135" rx="14" fill="#0A0A0A" stroke="#CCFF00" stroke-width="3"/>
  <rect x="1102" y="548" width="96" height="96" rx="10" fill="#1A1A1A" stroke="#CCFF00" stroke-width="2"/>
  <text x="1218" y="570" fill="#F5F5F5" font-family="Arial, sans-serif" font-size="28" font-weight="700">TACTICAL CROSS BAG 72</text>
  <text x="1218" y="606" fill="#D0D0D0" font-family="Arial, sans-serif" font-size="18">Pushes the utility angle without overloading the fit.</text>
  <rect x="1218" y="624" width="128" height="24" rx="8" fill="#CCFF00"/>
  <text x="1242" y="641" fill="#0A0A0A" font-family="Arial, sans-serif" font-size="14" font-weight="700">MATCH SCORE</text>

  <rect x="1084" y="700" width="402" height="135" rx="14" fill="#0A0A0A" stroke="#FF4FD8" stroke-width="3"/>
  <rect x="1102" y="718" width="96" height="96" rx="10" fill="#1A1A1A" stroke="#FF4FD8" stroke-width="2"/>
  <text x="1218" y="740" fill="#F5F5F5" font-family="Arial, sans-serif" font-size="28" font-weight="700">NEON BEANIE 98</text>
  <text x="1218" y="776" fill="#D0D0D0" font-family="Arial, sans-serif" font-size="18">Adds one bright accent so the look feels intentional.</text>
  <rect x="1218" y="794" width="128" height="24" rx="8" fill="#FF4FD8"/>
  <text x="1242" y="811" fill="#0A0A0A" font-family="Arial, sans-serif" font-size="14" font-weight="700">MATCH SCORE</text>

  <text x="92" y="1010" fill="#8A8A8A" font-family="Arial, sans-serif" font-size="18">Instead of fixed URBAN / CYBER / NEON bars, this version uses AI summary, dynamic style signals, and recommendation cards.</text>
</svg>
